<svg id="Group_901" data-name="Group 901" xmlns="http://www.w3.org/2000/svg" xmlns:xlink="http://www.w3.org/1999/xlink" width="177.404" height="152.129" viewBox="0 0 177.404 152.129">
  <defs>
    <clipPath id="clip-path">
      <rect id="Rectangle_612" data-name="Rectangle 612" width="177.404" height="152.129" fill="none"/>
    </clipPath>
    <clipPath id="clip-path-2">
      <rect id="Rectangle_613" data-name="Rectangle 613" width="162.471" height="91.392" fill="none"/>
    </clipPath>
  </defs>
  <g id="Group_896" data-name="Group 896">
    <g id="Group_895" data-name="Group 895" clip-path="url(#clip-path)">
      <path id="Path_4204" data-name="Path 4204" d="M25.732,93.523a5.869,5.869,0,0,0-2.057.83A4.165,4.165,0,0,0,22.3,95.869a4.733,4.733,0,0,0-.505,2.274,3.158,3.158,0,0,0,1.155,2.31,16.623,16.623,0,0,0,2.886,2.112q1.733,1.028,3.735,2.074t3.735,2.184a14.427,14.427,0,0,1,2.887,2.436,4.162,4.162,0,0,1,1.154,2.815,11.8,11.8,0,0,1-.2,2,4.641,4.641,0,0,1-1.046,2.166,6.431,6.431,0,0,1-2.526,1.733,12.454,12.454,0,0,1-4.673.7,21.046,21.046,0,0,1-2.274-.144,19.683,19.683,0,0,0-2.609-.366c-1.127.029-1.956.781-2.7.54a4.157,4.157,0,0,1-1.4-.54v-4.543h.5a7.578,7.578,0,0,0,.488,1.173,4.759,4.759,0,0,0,1.3,1.534,8.473,8.473,0,0,0,2.544,1.335,12.566,12.566,0,0,0,4.15.578,12.787,12.787,0,0,0,2.616-.253,5.836,5.836,0,0,0,2.075-.831,4.157,4.157,0,0,0,1.372-1.515,4.748,4.748,0,0,0,.505-2.274,4.156,4.156,0,0,0-1.155-2.886,13.789,13.789,0,0,0-2.886-2.347q-1.733-1.081-3.735-2.093t-3.737-2.093a14.14,14.14,0,0,1-2.886-2.328,4.05,4.05,0,0,1-1.154-2.834,6.311,6.311,0,0,1,.324-1.894,4.6,4.6,0,0,1,1.245-1.913,7.408,7.408,0,0,1,2.563-1.5,12.421,12.421,0,0,1,4.276-.613q1.009,0,2.292.126t2.562.379a18.878,18.878,0,0,1,2.4.631,6.734,6.734,0,0,1,1.769.848V97.89h-.505a7.526,7.526,0,0,0-.487-1.173,4.715,4.715,0,0,0-1.317-1.533A8.771,8.771,0,0,0,32.5,93.848a12.539,12.539,0,0,0-4.168-.578,12.594,12.594,0,0,0-2.6.253" transform="translate(1.041 4.852)" fill="#040504"/>
      <path id="Path_4205" data-name="Path 4205" d="M52.632,93.079V97.3H52.2v-.4a1.8,1.8,0,0,0-.56-1.317,4.319,4.319,0,0,0-1.443-.921,11.865,11.865,0,0,0-1.967-.595,19.18,19.18,0,0,0-2.149-.343q-1.064-.109-1.967-.163c-.6-.036-1.071-.054-1.407-.054H42.2v11.115a8.391,8.391,0,0,1,1.877-.793,3.783,3.783,0,0,1,1.588-.09,8.485,8.485,0,0,1,1.426.361q.668.235,1.245.415a1.744,1.744,0,0,0,1.047.037,1.8,1.8,0,0,0,1.046-.83l.289.18a3.382,3.382,0,0,1-.4.9,2.536,2.536,0,0,1-.541.7,2.057,2.057,0,0,1-.866.488,2.7,2.7,0,0,1-1.57.036,13.063,13.063,0,0,1-1.407-.524,10.077,10.077,0,0,0-1.463-.505,3.216,3.216,0,0,0-1.732.09,1.417,1.417,0,0,0-.542.217v12.594h.506c.336,0,.806-.012,1.407-.036s1.257-.078,1.967-.162,1.427-.2,2.149-.343a9.937,9.937,0,0,0,1.967-.6,4.553,4.553,0,0,0,1.443-.938,1.806,1.806,0,0,0,.56-1.317v-.4h.434v4.223H38.3v-.434h.361a1.1,1.1,0,0,0,.812-.27,2.134,2.134,0,0,0,.415-.559,2.8,2.8,0,0,0,.181-.83V95.172a2.8,2.8,0,0,0-.181-.829,1.747,1.747,0,0,0-.415-.578,1.152,1.152,0,0,0-.812-.253H38.3v-.434Z" transform="translate(2.001 4.863)" fill="#040504"/>
      <path id="Path_4206" data-name="Path 4206" d="M73.554,117.908v.434H67.888v-.434h.36a1.446,1.446,0,0,0,.848-.2.963.963,0,0,0,.361-.468,1.361,1.361,0,0,0,.073-.524,2.647,2.647,0,0,0-.054-.4L62.8,94.089,59.335,105.71a3.64,3.64,0,0,0-.2,1.136,1.219,1.219,0,0,0,.163.631.625.625,0,0,0,.415.271,2.683,2.683,0,0,0,.523.054,1.6,1.6,0,0,0,1.209-.432,9.159,9.159,0,0,0,.793-.956,6.456,6.456,0,0,1,.848-.956,1.9,1.9,0,0,1,1.336-.434,1.38,1.38,0,0,1,1.173.559,2.72,2.72,0,0,1,.486,1.408,5.521,5.521,0,0,1-.181,1.84,5.358,5.358,0,0,1-.866,1.84,4.982,4.982,0,0,1-1.588,1.408,4.552,4.552,0,0,1-2.31.56,4.222,4.222,0,0,1-1.371-.2,3.679,3.679,0,0,0-.992-.217.876.876,0,0,0-.7.289,2.8,2.8,0,0,0-.469,1.317l-.4,2.237a2.7,2.7,0,0,1-.956,1.624,2.75,2.75,0,0,1-1.822.65H53.018v-.434a2.082,2.082,0,0,0,2.022-1.66l.323-1.912a1.286,1.286,0,0,1,.109-.505,2.968,2.968,0,0,1,1.083-1.949,2.549,2.549,0,0,1,1.57-.361,6.2,6.2,0,0,1,1.66.379,3.994,3.994,0,0,0,1.352.306,4.194,4.194,0,0,0,2.112-.505,4.494,4.494,0,0,0,1.425-1.245,5.374,5.374,0,0,0,1.011-3.248,2.485,2.485,0,0,0-.361-1.245.989.989,0,0,0-.866-.505,1.755,1.755,0,0,0-1.083.324,2.686,2.686,0,0,0-.722.83,7.407,7.407,0,0,0-.505,1.083,9.127,9.127,0,0,1-.487,1.083,2.849,2.849,0,0,1-.649.83,1.482,1.482,0,0,1-.993.325,1.375,1.375,0,0,1-1.046-.38,1.764,1.764,0,0,1-.451-.992,4.622,4.622,0,0,1,.018-1.353,11.783,11.783,0,0,1,.324-1.5l3.79-12.631h2.057l6.929,23.168a2.917,2.917,0,0,0,.4.83,3.2,3.2,0,0,0,.451.56.908.908,0,0,0,.667.27Z" transform="translate(2.77 4.863)" fill="#040504"/>
      <path id="Path_4207" data-name="Path 4207" d="M94.1,114.119v4.223H79.77v-.434h.361a1.1,1.1,0,0,0,.811-.27,2.163,2.163,0,0,0,.416-.559,2.8,2.8,0,0,0,.181-.831V95.172c0-.048-.013-.156-.036-.325a2.388,2.388,0,0,0-.163-.559,1.365,1.365,0,0,0-.416-.542,1.225,1.225,0,0,0-.793-.235H79.77v-.432h5.666v.432h-.4a1.1,1.1,0,0,0-.777.253,1.758,1.758,0,0,0-.415.578,2.8,2.8,0,0,0-.181.83v22.736h.506c.336,0,.806-.012,1.407-.036s1.256-.078,1.967-.162,1.426-.2,2.148-.343a10.007,10.007,0,0,0,1.967-.6,4.514,4.514,0,0,0,1.443-.939,1.8,1.8,0,0,0,.561-1.316v-.4Z" transform="translate(4.168 4.863)" fill="#040504"/>
      <path id="Path_4208" data-name="Path 4208" d="M104.972,92.874a11.129,11.129,0,0,1,5.232,1.172,10.857,10.857,0,0,1,3.682,3.086A12.732,12.732,0,0,1,116,101.481a15.773,15.773,0,0,1-.307,9.419,11.985,11.985,0,0,1-2.219,3.9,10.914,10.914,0,0,1-3.572,2.743,12.316,12.316,0,0,1-9.852,0,10.929,10.929,0,0,1-3.573-2.743,12.042,12.042,0,0,1-2.219-3.9,15.762,15.762,0,0,1-.306-9.419,12.712,12.712,0,0,1,2.111-4.349,10.853,10.853,0,0,1,3.681-3.086,11.135,11.135,0,0,1,5.234-1.172m9.491,13.533a18.666,18.666,0,0,0-.469-4.764,13.226,13.226,0,0,0-1.733-4.2,9.542,9.542,0,0,0-3.013-3,8.616,8.616,0,0,0-8.554,0,9.374,9.374,0,0,0-3,3,13.8,13.8,0,0,0-1.731,4.2,18.089,18.089,0,0,0,.251,9.112,12.623,12.623,0,0,0,1.822,3.771,9.2,9.2,0,0,0,2.923,2.653,8.657,8.657,0,0,0,8.049,0,9.185,9.185,0,0,0,2.923-2.653,12.623,12.623,0,0,0,1.822-3.771,17.083,17.083,0,0,0,.7-4.349" transform="translate(4.878 4.852)" fill="#040504"/>
      <path id="Path_4209" data-name="Path 4209" d="M132.753,116.248a2.022,2.022,0,0,0,.7,1.191,1.987,1.987,0,0,0,1.317.469v.432H133.33a2.8,2.8,0,0,1-2.742-2.273l-1.227-6.641a2.8,2.8,0,0,0-.469-1.317.873.873,0,0,0-.7-.288,3.626,3.626,0,0,0-.991.216,4.228,4.228,0,0,1-1.372.2,4.554,4.554,0,0,1-2.31-.559,5.007,5.007,0,0,1-1.588-1.408,5.633,5.633,0,0,1-.884-1.84,5.3,5.3,0,0,1-.2-1.84,2.616,2.616,0,0,1,.505-1.408,1.388,1.388,0,0,1,1.155-.559,1.892,1.892,0,0,1,1.173.342,3.485,3.485,0,0,1,.793.867,6.984,6.984,0,0,1,.595,1.117,12.032,12.032,0,0,0,.543,1.12,3.3,3.3,0,0,0,.666.866,1.372,1.372,0,0,0,.958.343,2.135,2.135,0,0,0,1.713-.866,5.5,5.5,0,0,0,1.029-2.183,10.276,10.276,0,0,0,.271-2.834,9.428,9.428,0,0,0-.524-2.833,5.572,5.572,0,0,0-1.371-2.183,3.156,3.156,0,0,0-2.274-.866h-6.568v22.736a2.762,2.762,0,0,0,.181.83,2.156,2.156,0,0,0,.415.56,1.051,1.051,0,0,0,.777.27h.4v.432h-5.666v-.432h.361a1.1,1.1,0,0,0,.811-.27,2.185,2.185,0,0,0,.416-.56,2.829,2.829,0,0,0,.181-.83V95.173a2.836,2.836,0,0,0-.181-.83,1.766,1.766,0,0,0-.416-.578,1.155,1.155,0,0,0-.811-.253h-.361v-.434h11.332a4.583,4.583,0,0,1,2.924.939,6.144,6.144,0,0,1,1.821,2.346,8.232,8.232,0,0,1,.7,3.03,7.871,7.871,0,0,1-.432,3.032,5.438,5.438,0,0,1-1.607,2.347,4.214,4.214,0,0,1-2.833.939,2.506,2.506,0,0,1-1.39-.343,2.954,2.954,0,0,1-.865-.867,6.078,6.078,0,0,1-.579-1.119,11.813,11.813,0,0,0-.505-1.119,2.884,2.884,0,0,0-.667-.866,1.546,1.546,0,0,0-1.046-.343.947.947,0,0,0-.848.505,2.6,2.6,0,0,0-.343,1.246,5.326,5.326,0,0,0,.2,1.624,4.635,4.635,0,0,0,.794,1.624,4.69,4.69,0,0,0,1.444,1.246,4.181,4.181,0,0,0,2.111.5,3.979,3.979,0,0,0,1.353-.306,6.165,6.165,0,0,1,1.643-.379,2.533,2.533,0,0,1,1.57.379,2.988,2.988,0,0,1,1.1,1.931c.023.121.041.217.054.288a1.379,1.379,0,0,1,.018.217Z" transform="translate(6.04 4.863)" fill="#040504"/>
      <path id="Path_4210" data-name="Path 4210" d="M149.8,93.079V97.3h-.434v-.4a1.8,1.8,0,0,0-.56-1.317,4.319,4.319,0,0,0-1.443-.921,11.865,11.865,0,0,0-1.967-.595,19.18,19.18,0,0,0-2.149-.343q-1.064-.109-1.967-.163c-.6-.036-1.071-.054-1.407-.054h-.506v11.115a8.391,8.391,0,0,1,1.877-.793,3.783,3.783,0,0,1,1.588-.09,8.485,8.485,0,0,1,1.426.361q.668.235,1.245.415a1.744,1.744,0,0,0,1.047.037,1.8,1.8,0,0,0,1.046-.83l.289.18a3.383,3.383,0,0,1-.4.9,2.536,2.536,0,0,1-.541.7,2.057,2.057,0,0,1-.866.488,2.7,2.7,0,0,1-1.57.036,13.062,13.062,0,0,1-1.407-.524,10.077,10.077,0,0,0-1.463-.505,3.216,3.216,0,0,0-1.732.09,1.418,1.418,0,0,0-.542.217v12.594h.506c.336,0,.806-.012,1.407-.036s1.257-.078,1.967-.162,1.427-.2,2.149-.343a9.937,9.937,0,0,0,1.967-.6,4.553,4.553,0,0,0,1.443-.938,1.806,1.806,0,0,0,.56-1.317v-.4h.434v4.223H135.468v-.434h.361a1.1,1.1,0,0,0,.812-.27,2.134,2.134,0,0,0,.415-.559,2.8,2.8,0,0,0,.181-.83V95.172a2.8,2.8,0,0,0-.181-.829,1.747,1.747,0,0,0-.415-.578,1.152,1.152,0,0,0-.812-.253h-.361v-.434Z" transform="translate(7.077 4.863)" fill="#040504"/>
      <path id="Path_4211" data-name="Path 4211" d="M143.234,117.146c7.124,4.344,13.219,7.455,18.811-1.928,1.523-2.557,4.781-2.042,7.876.626-1.646-2.365-5.528-5.187-8.817-2.107-3.3,4.03-6.617,6.378-12,3.408Z" transform="translate(7.483 5.871)" fill="#040504" fill-rule="evenodd"/>
      <path id="Path_4212" data-name="Path 4212" d="M26.687,117.146c-7.124,4.344-13.219,7.455-18.811-1.928-1.523-2.557-4.781-2.042-7.876.626,1.646-2.365,5.528-5.187,8.817-2.107,3.3,4.03,6.617,6.378,12,3.408Z" transform="translate(0 5.871)" fill="#040504" fill-rule="evenodd"/>
    </g>
  </g>
  <g id="Group_898" data-name="Group 898" transform="translate(7.467 0)">
    <g id="Group_897" data-name="Group 897" clip-path="url(#clip-path-2)">
      <path id="Path_4213" data-name="Path 4213" d="M85.773,47.038a34.6,34.6,0,1,0,34.6,34.6,34.6,34.6,0,0,0-34.6-34.6m0,58.142a23.543,23.543,0,1,1,23.543-23.543A23.543,23.543,0,0,1,85.773,105.18" transform="translate(-4.793 2.457)" fill="#c60020"/>
      <path id="Path_4214" data-name="Path 4214" d="M85.237,102.3a21.327,21.327,0,1,1,21.327-21.327A21.351,21.351,0,0,1,85.237,102.3m0-41.928a20.6,20.6,0,1,0,20.6,20.6,20.624,20.624,0,0,0-20.6-20.6m0,35.229A14.628,14.628,0,1,1,99.865,80.978,14.646,14.646,0,0,1,85.237,95.606m0-28.531a13.9,13.9,0,1,0,13.9,13.9,13.918,13.918,0,0,0-13.9-13.9" transform="translate(-4.128 3.116)" fill="#040504"/>
      <path id="Path_4215" data-name="Path 4215" d="M84.821,51.767a3.694,3.694,0,0,1-3.5-2.5,3.695,3.695,0,1,0,6.832.392,3.7,3.7,0,0,1-3.337,2.108" transform="translate(-3.237 2.574)" fill="#eb4548"/>
      <path id="Path_4216" data-name="Path 4216" d="M84.506,107.51a3.694,3.694,0,0,1,3.567,2.4,3.695,3.695,0,1,0-6.841-.192,3.694,3.694,0,0,1,3.274-2.2" transform="translate(-3.235 5.471)" fill="#eb4548"/>
      <path id="Path_4217" data-name="Path 4217" d="M112.447,79.785a3.694,3.694,0,0,1,2.5-3.5,3.695,3.695,0,1,0-.392,6.832,3.7,3.7,0,0,1-2.108-3.337" transform="translate(-1.737 3.967)" fill="#eb4548"/>
      <path id="Path_4218" data-name="Path 4218" d="M56.7,79.47a3.694,3.694,0,0,1-2.4,3.567,3.695,3.695,0,1,0,.192-6.841,3.694,3.694,0,0,1,2.2,3.274" transform="translate(-4.63 3.969)" fill="#eb4548"/>
      <path id="Path_4219" data-name="Path 4219" d="M94.233,53.514a3.7,3.7,0,0,1-2.44-3.538,3.694,3.694,0,1,0,6.295,2.686,3.694,3.694,0,0,1-3.854.851" transform="translate(-2.728 2.611)" fill="#eb4548"/>
      <path id="Path_4220" data-name="Path 4220" d="M75.063,105.8a3.694,3.694,0,0,1,2.543,3.464,3.694,3.694,0,1,0-6.37-2.5,3.693,3.693,0,0,1,3.827-.964" transform="translate(-3.745 5.382)" fill="#eb4548"/>
      <path id="Path_4221" data-name="Path 4221" d="M110.752,89.2a3.7,3.7,0,0,1,3.538-2.44,3.694,3.694,0,1,0-2.686,6.295,3.694,3.694,0,0,1-.851-3.854" transform="translate(-1.826 4.475)" fill="#eb4548"/>
      <path id="Path_4222" data-name="Path 4222" d="M58.462,70.027A3.694,3.694,0,0,1,55,72.57a3.694,3.694,0,1,0,2.5-6.37,3.693,3.693,0,0,1,.964,3.827" transform="translate(-4.593 3.459)" fill="#eb4548"/>
      <path id="Path_4223" data-name="Path 4223" d="M102.138,58.03A3.693,3.693,0,0,1,100.97,53.9a3.694,3.694,0,1,0,5.091,4.573,3.694,3.694,0,0,1-3.923-.438" transform="translate(-2.3 2.816)" fill="#eb4548"/>
      <path id="Path_4224" data-name="Path 4224" d="M67.128,101.3a3.694,3.694,0,0,1,1.289,4.1,3.694,3.694,0,1,0-5.222-4.423,3.693,3.693,0,0,1,3.933.323" transform="translate(-4.165 5.142)" fill="#eb4548"/>
      <path id="Path_4225" data-name="Path 4225" d="M106.275,97.1a3.693,3.693,0,0,1,4.135-1.168,3.694,3.694,0,1,0-4.573,5.091,3.694,3.694,0,0,1,.438-3.923" transform="translate(-2.065 4.903)" fill="#eb4548"/>
      <path id="Path_4226" data-name="Path 4226" d="M63,62.093a3.694,3.694,0,0,1-4.1,1.289,3.694,3.694,0,1,0,4.423-5.222A3.693,3.693,0,0,1,63,62.093" transform="translate(-4.389 3.038)" fill="#eb4548"/>
      <path id="Path_4227" data-name="Path 4227" d="M107.784,64.236a3.7,3.7,0,0,1,.118-4.3,3.7,3.7,0,1,0,3.5,5.884,3.7,3.7,0,0,1-3.613-1.588" transform="translate(-1.994 3.131)" fill="#eb4548"/>
      <path id="Path_4228" data-name="Path 4228" d="M61.45,95.093a3.7,3.7,0,0,1,.008,4.3,3.694,3.694,0,1,0-3.667-5.778,3.693,3.693,0,0,1,3.659,1.481" transform="translate(-4.447 4.81)" fill="#eb4548"/>
      <path id="Path_4229" data-name="Path 4229" d="M100.094,102.751a3.7,3.7,0,0,1,4.3.118,3.7,3.7,0,1,0-5.884,3.5,3.7,3.7,0,0,1,1.588-3.613" transform="translate(-2.397 5.21)" fill="#eb4548"/>
      <path id="Path_4230" data-name="Path 4230" d="M69.236,56.416a3.7,3.7,0,0,1-4.3.008,3.694,3.694,0,1,0,5.778-3.667,3.693,3.693,0,0,1-1.481,3.659" transform="translate(-4.074 2.756)" fill="#eb4548"/>
      <path id="Path_4231" data-name="Path 4231" d="M111.187,71.446a3.694,3.694,0,0,1,1.332-4.086,3.695,3.695,0,1,0,1.683,6.633,3.693,3.693,0,0,1-3.015-2.547" transform="translate(-1.808 3.517)" fill="#eb4548"/>
      <path id="Path_4232" data-name="Path 4232" d="M57.961,87.889a3.7,3.7,0,0,1-1.211,4.123,3.694,3.694,0,1,0-1.876-6.581,3.694,3.694,0,0,1,3.087,2.458" transform="translate(-4.6 4.422)" fill="#eb4548"/>
      <path id="Path_4233" data-name="Path 4233" d="M92.879,106.192a3.694,3.694,0,0,1,4.086,1.332,3.695,3.695,0,1,0-6.633,1.683,3.693,3.693,0,0,1,2.547-3.015" transform="translate(-2.785 5.398)" fill="#eb4548"/>
      <path id="Path_4234" data-name="Path 4234" d="M76.437,52.967a3.7,3.7,0,0,1-4.123-1.211,3.694,3.694,0,1,0,6.581-1.876,3.694,3.694,0,0,1-2.458,3.087" transform="translate(-3.69 2.606)" fill="#eb4548"/>
      <path id="Path_4235" data-name="Path 4235" d="M71.344,71.479a1.754,1.754,0,1,1-1.754-1.754,1.754,1.754,0,0,1,1.754,1.754" transform="translate(-3.923 3.643)" fill="#eb4548"/>
      <path id="Path_4236" data-name="Path 4236" d="M73.364,68.684A1.754,1.754,0,1,1,71.61,66.93a1.754,1.754,0,0,1,1.754,1.754" transform="translate(-3.817 3.497)" fill="#eb4548"/>
      <path id="Path_4237" data-name="Path 4237" d="M70.334,74.8a1.754,1.754,0,1,1-1.754-1.754A1.754,1.754,0,0,1,70.334,74.8" transform="translate(-3.975 3.816)" fill="#eb4548"/>
      <path id="Path_4238" data-name="Path 4238" d="M69.627,78.129a1.754,1.754,0,1,1-1.754-1.754,1.754,1.754,0,0,1,1.754,1.754" transform="translate(-4.012 3.99)" fill="#eb4548"/>
      <path id="Path_4239" data-name="Path 4239" d="M69.627,81.614a1.754,1.754,0,1,1-1.754-1.754,1.754,1.754,0,0,1,1.754,1.754" transform="translate(-4.012 4.172)" fill="#eb4548"/>
      <path id="Path_4240" data-name="Path 4240" d="M70.283,85.049a1.754,1.754,0,1,1-1.754-1.754,1.754,1.754,0,0,1,1.754,1.754" transform="translate(-3.978 4.352)" fill="#eb4548"/>
      <path id="Path_4241" data-name="Path 4241" d="M71.748,88.231a1.754,1.754,0,1,1-1.754-1.754,1.754,1.754,0,0,1,1.754,1.754" transform="translate(-3.902 4.518)" fill="#eb4548"/>
      <path id="Path_4242" data-name="Path 4242" d="M73.667,91.261a1.754,1.754,0,1,1-1.754-1.754,1.754,1.754,0,0,1,1.754,1.754" transform="translate(-3.801 4.676)" fill="#eb4548"/>
      <path id="Path_4243" data-name="Path 4243" d="M75.823,66.394a1.754,1.754,0,1,1-1.754-1.754,1.754,1.754,0,0,1,1.754,1.754" transform="translate(-3.689 3.377)" fill="#eb4548"/>
      <path id="Path_4244" data-name="Path 4244" d="M78.55,65.876a1.754,1.754,0,1,1-.323-2.459,1.754,1.754,0,0,1,.323,2.459" transform="translate(-3.527 3.294)" fill="#eb4548"/>
      <path id="Path_4245" data-name="Path 4245" d="M81.855,64.889a1.754,1.754,0,1,1-.323-2.459,1.754,1.754,0,0,1,.323,2.459" transform="translate(-3.355 3.243)" fill="#eb4548"/>
      <path id="Path_4246" data-name="Path 4246" d="M85.2,64.57a1.754,1.754,0,1,1-.323-2.459A1.754,1.754,0,0,1,85.2,64.57" transform="translate(-3.18 3.226)" fill="#eb4548"/>
      <path id="Path_4247" data-name="Path 4247" d="M87.911,65.6a1.754,1.754,0,1,1,.973-2.281,1.754,1.754,0,0,1-.973,2.281" transform="translate(-3 3.25)" fill="#eb4548"/>
      <path id="Path_4248" data-name="Path 4248" d="M91.258,66.428a1.754,1.754,0,1,1,.973-2.281,1.754,1.754,0,0,1-.973,2.281" transform="translate(-2.825 3.294)" fill="#eb4548"/>
      <path id="Path_4249" data-name="Path 4249" d="M94.3,67.854a1.754,1.754,0,1,1,.973-2.281,1.754,1.754,0,0,1-.973,2.281" transform="translate(-2.666 3.368)" fill="#eb4548"/>
      <path id="Path_4250" data-name="Path 4250" d="M95.661,70.378a1.754,1.754,0,1,1,2.107-1.309,1.754,1.754,0,0,1-2.107,1.309" transform="translate(-2.54 3.496)" fill="#eb4548"/>
      <path id="Path_4251" data-name="Path 4251" d="M97.923,72.981a1.754,1.754,0,1,1,2.107-1.309,1.754,1.754,0,0,1-2.107,1.309" transform="translate(-2.422 3.632)" fill="#eb4548"/>
      <path id="Path_4252" data-name="Path 4252" d="M99.594,75.895a1.754,1.754,0,1,1,2.107-1.309,1.754,1.754,0,0,1-2.107,1.309" transform="translate(-2.334 3.784)" fill="#eb4548"/>
      <path id="Path_4253" data-name="Path 4253" d="M98.786,78.4a1.754,1.754,0,1,1,2.461.306,1.753,1.753,0,0,1-2.461-.306" transform="translate(-2.325 3.948)" fill="#eb4548"/>
      <path id="Path_4254" data-name="Path 4254" d="M98.91,81.844a1.754,1.754,0,1,1,2.461.306,1.753,1.753,0,0,1-2.461-.306" transform="translate(-2.319 4.128)" fill="#eb4548"/>
      <path id="Path_4255" data-name="Path 4255" d="M98.378,85.161a1.754,1.754,0,1,1,2.461.306,1.753,1.753,0,0,1-2.461-.306" transform="translate(-2.346 4.301)" fill="#eb4548"/>
      <path id="Path_4256" data-name="Path 4256" d="M96.545,87.246a1.754,1.754,0,1,1,1.767,1.741,1.754,1.754,0,0,1-1.767-1.741" transform="translate(-2.423 4.466)" fill="#eb4548"/>
      <path id="Path_4257" data-name="Path 4257" d="M94.544,90.055A1.754,1.754,0,1,1,96.311,91.8a1.754,1.754,0,0,1-1.767-1.741" transform="translate(-2.527 4.612)" fill="#eb4548"/>
      <path id="Path_4258" data-name="Path 4258" d="M92.1,92.362A1.754,1.754,0,1,1,93.87,94.1,1.754,1.754,0,0,1,92.1,92.362" transform="translate(-2.655 4.733)" fill="#eb4548"/>
      <path id="Path_4259" data-name="Path 4259" d="M89.333,93.218a1.754,1.754,0,1,1,.635,2.4,1.754,1.754,0,0,1-.635-2.4" transform="translate(-2.812 4.824)" fill="#eb4548"/>
      <path id="Path_4260" data-name="Path 4260" d="M86.181,94.619a1.754,1.754,0,1,1,.635,2.4,1.754,1.754,0,0,1-.635-2.4" transform="translate(-2.977 4.898)" fill="#eb4548"/>
      <path id="Path_4261" data-name="Path 4261" d="M82.906,95.363a1.754,1.754,0,1,1,.633,2.4,1.753,1.753,0,0,1-.633-2.4" transform="translate(-3.148 4.937)" fill="#eb4548"/>
      <path id="Path_4262" data-name="Path 4262" d="M80.28,94.21a1.754,1.754,0,1,1-.858,2.328,1.754,1.754,0,0,1,.858-2.328" transform="translate(-3.326 4.913)" fill="#eb4548"/>
      <path id="Path_4263" data-name="Path 4263" d="M76.9,93.546a1.754,1.754,0,1,1-.858,2.328,1.754,1.754,0,0,1,.858-2.328" transform="translate(-3.503 4.879)" fill="#eb4548"/>
      <path id="Path_4264" data-name="Path 4264" d="M73.787,92.274a1.754,1.754,0,1,1-.858,2.328,1.754,1.754,0,0,1,.858-2.328" transform="translate(-3.665 4.812)" fill="#eb4548"/>
      <path id="Path_4265" data-name="Path 4265" d="M85.8,41.537a1.116,1.116,0,1,1-1.116-1.116A1.116,1.116,0,0,1,85.8,41.537" transform="translate(-3.101 2.112)" fill="#c60020"/>
      <path id="Path_4266" data-name="Path 4266" d="M85.8,118.436a1.116,1.116,0,1,1-1.116-1.116,1.116,1.116,0,0,1,1.116,1.116" transform="translate(-3.101 6.129)" fill="#c60020"/>
      <path id="Path_4267" data-name="Path 4267" d="M85.8,41.537a1.116,1.116,0,1,1-1.116-1.116A1.116,1.116,0,0,1,85.8,41.537" transform="translate(-3.101 2.112)" fill="#c60020"/>
      <path id="Path_4268" data-name="Path 4268" d="M85.8,118.436a1.116,1.116,0,1,1-1.116-1.116,1.116,1.116,0,0,1,1.116,1.116" transform="translate(-3.101 6.129)" fill="#c60020"/>
      <path id="Path_4269" data-name="Path 4269" d="M123.135,81.1a1.116,1.116,0,1,1,1.116-1.116,1.116,1.116,0,0,1-1.116,1.116" transform="translate(-1.092 4.121)" fill="#c60020"/>
      <path id="Path_4270" data-name="Path 4270" d="M46.236,81.1a1.116,1.116,0,1,1,1.116-1.116A1.116,1.116,0,0,1,46.236,81.1" transform="translate(-5.109 4.121)" fill="#c60020"/>
      <path id="Path_4271" data-name="Path 4271" d="M112.141,53.046a1.116,1.116,0,1,1-.031-1.578,1.117,1.117,0,0,1,.031,1.578" transform="translate(-1.708 2.673)" fill="#c60020"/>
      <path id="Path_4272" data-name="Path 4272" d="M58.84,108.476a1.116,1.116,0,1,1-.031-1.578,1.117,1.117,0,0,1,.031,1.578" transform="translate(-4.493 5.568)" fill="#c60020"/>
      <path id="Path_4273" data-name="Path 4273" d="M111.627,107.442a1.116,1.116,0,1,1,1.578-.031,1.117,1.117,0,0,1-1.578.031" transform="translate(-1.653 5.513)" fill="#c60020"/>
      <path id="Path_4274" data-name="Path 4274" d="M56.2,54.141a1.116,1.116,0,1,1,1.578-.031,1.117,1.117,0,0,1-1.578.031" transform="translate(-4.549 2.728)" fill="#c60020"/>
      <path id="Path_4275" data-name="Path 4275" d="M92.047,42.232a1.116,1.116,0,1,1-.92-1.283,1.116,1.116,0,0,1,.92,1.283" transform="translate(-2.774 2.139)" fill="#c60020"/>
      <path id="Path_4276" data-name="Path 4276" d="M79.527,118.105a1.116,1.116,0,1,1-.92-1.283,1.116,1.116,0,0,1,.92,1.283" transform="translate(-3.428 6.102)" fill="#c60020"/>
      <path id="Path_4277" data-name="Path 4277" d="M122.44,87.348a1.116,1.116,0,1,1,1.283-.92,1.116,1.116,0,0,1-1.283.92" transform="translate(-1.119 4.448)" fill="#c60020"/>
      <path id="Path_4278" data-name="Path 4278" d="M46.568,74.828a1.116,1.116,0,1,1,1.283-.92,1.116,1.116,0,0,1-1.283.92" transform="translate(-5.083 3.793)" fill="#c60020"/>
      <path id="Path_4279" data-name="Path 4279" d="M116.162,57.876a1.116,1.116,0,1,1,.225-1.562,1.115,1.115,0,0,1-.225,1.562" transform="translate(-1.491 2.919)" fill="#c60020"/>
      <path id="Path_4280" data-name="Path 4280" d="M54.547,103.887a1.116,1.116,0,1,1,.226-1.562,1.117,1.117,0,0,1-.226,1.562" transform="translate(-4.71 5.322)" fill="#c60020"/>
      <path id="Path_4281" data-name="Path 4281" d="M106.8,111.463a1.116,1.116,0,1,1,1.562.226,1.115,1.115,0,0,1-1.562-.226" transform="translate(-1.899 5.73)" fill="#c60020"/>
      <path id="Path_4282" data-name="Path 4282" d="M60.786,49.848a1.116,1.116,0,1,1,1.562.226,1.115,1.115,0,0,1-1.562-.226" transform="translate(-4.303 2.511)" fill="#c60020"/>
      <path id="Path_4283" data-name="Path 4283" d="M97.96,43.884a1.116,1.116,0,1,1-.7-1.413,1.117,1.117,0,0,1,.7,1.413" transform="translate(-2.463 2.216)" fill="#c60020"/>
      <path id="Path_4284" data-name="Path 4284" d="M73.529,116.8a1.116,1.116,0,1,1-.7-1.413,1.117,1.117,0,0,1,.7,1.413" transform="translate(-3.739 6.025)" fill="#c60020"/>
      <path id="Path_4285" data-name="Path 4285" d="M120.789,93.261a1.116,1.116,0,1,1,1.413-.7,1.117,1.117,0,0,1-1.413.7" transform="translate(-1.196 4.759)" fill="#c60020"/>
      <path id="Path_4286" data-name="Path 4286" d="M47.874,68.83a1.116,1.116,0,1,1,1.413-.7,1.117,1.117,0,0,1-1.413.7" transform="translate(-5.005 3.482)" fill="#c60020"/>
      <path id="Path_4287" data-name="Path 4287" d="M119.278,63.165a1.116,1.116,0,1,1,.472-1.506,1.116,1.116,0,0,1-.472,1.506" transform="translate(-1.321 3.19)" fill="#c60020"/>
      <path id="Path_4288" data-name="Path 4288" d="M51.128,98.788a1.116,1.116,0,1,1,.472-1.506,1.115,1.115,0,0,1-.472,1.506" transform="translate(-4.881 5.051)" fill="#c60020"/>
      <path id="Path_4289" data-name="Path 4289" d="M101.508,114.579a1.116,1.116,0,1,1,1.506.472,1.115,1.115,0,0,1-1.506-.472" transform="translate(-2.17 5.901)" fill="#c60020"/>
      <path id="Path_4290" data-name="Path 4290" d="M65.885,46.429a1.116,1.116,0,1,1,1.506.472,1.116,1.116,0,0,1-1.506-.472" transform="translate(-4.031 2.34)" fill="#c60020"/>
      <path id="Path_4291" data-name="Path 4291" d="M103.213,46.277a1.116,1.116,0,1,1-.484-1.5,1.117,1.117,0,0,1,.484,1.5" transform="translate(-2.185 2.333)" fill="#c60020"/>
      <path id="Path_4292" data-name="Path 4292" d="M68.146,114.715a1.116,1.116,0,1,1-.484-1.5,1.117,1.117,0,0,1,.484,1.5" transform="translate(-4.017 5.908)" fill="#c60020"/>
      <path id="Path_4293" data-name="Path 4293" d="M118.4,98.514a1.116,1.116,0,1,1,1.5-.484,1.117,1.117,0,0,1-1.5.484" transform="translate(-1.313 5.037)" fill="#c60020"/>
      <path id="Path_4294" data-name="Path 4294" d="M49.958,63.448a1.116,1.116,0,1,1,1.5-.484,1.117,1.117,0,0,1-1.5.484" transform="translate(-4.888 3.205)" fill="#c60020"/>
      <path id="Path_4295" data-name="Path 4295" d="M121.405,68.53a1.116,1.116,0,1,1,.692-1.418,1.116,1.116,0,0,1-.692,1.418" transform="translate(-1.201 3.467)" fill="#c60020"/>
      <path id="Path_4296" data-name="Path 4296" d="M48.692,93.555a1.116,1.116,0,1,1,.692-1.418,1.116,1.116,0,0,1-.692,1.418" transform="translate(-5 4.774)" fill="#c60020"/>
      <path id="Path_4297" data-name="Path 4297" d="M96.143,116.706a1.116,1.116,0,1,1,1.418.692,1.116,1.116,0,0,1-1.418-.692" transform="translate(-2.447 6.02)" fill="#c60020"/>
      <path id="Path_4298" data-name="Path 4298" d="M71.118,43.993a1.116,1.116,0,1,1,1.418.692,1.116,1.116,0,0,1-1.418-.692" transform="translate(-3.754 2.221)" fill="#c60020"/>
      <path id="Path_4299" data-name="Path 4299" d="M108.219,49.561A1.116,1.116,0,1,1,107.974,48a1.116,1.116,0,0,1,.245,1.559" transform="translate(-1.918 2.497)" fill="#c60020"/>
      <path id="Path_4300" data-name="Path 4300" d="M62.957,111.728a1.116,1.116,0,1,1-.245-1.559,1.116,1.116,0,0,1,.245,1.559" transform="translate(-4.283 5.744)" fill="#c60020"/>
      <path id="Path_4301" data-name="Path 4301" d="M115.113,103.52a1.116,1.116,0,1,1,1.559-.245,1.116,1.116,0,0,1-1.559.245" transform="translate(-1.477 5.303)" fill="#c60020"/>
      <path id="Path_4302" data-name="Path 4302" d="M52.946,58.258a1.116,1.116,0,1,1,1.559-.245,1.116,1.116,0,0,1-1.559.245" transform="translate(-4.725 2.938)" fill="#c60020"/>
      <path id="Path_4303" data-name="Path 4303" d="M122.739,74.367a1.116,1.116,0,1,1,.9-1.294,1.117,1.117,0,0,1-.9,1.294" transform="translate(-1.123 3.769)" fill="#c60020"/>
      <path id="Path_4304" data-name="Path 4304" d="M47.023,87.8a1.116,1.116,0,1,1,.9-1.294,1.117,1.117,0,0,1-.9,1.294" transform="translate(-5.079 4.472)" fill="#c60020"/>
      <path id="Path_4305" data-name="Path 4305" d="M90.306,118.04a1.116,1.116,0,1,1,1.294.9,1.117,1.117,0,0,1-1.294-.9" transform="translate(-2.75 6.098)" fill="#c60020"/>
      <path id="Path_4306" data-name="Path 4306" d="M76.868,42.324a1.116,1.116,0,1,1,1.294.9,1.117,1.117,0,0,1-1.294-.9" transform="translate(-3.452 2.143)" fill="#c60020"/>
      <path id="Path_4307" data-name="Path 4307" d="M80.951,34.06l3.918-4.8,4.478,4.45Z" transform="translate(-3.238 1.529)" fill="#c60020"/>
      <path id="Path_4308" data-name="Path 4308" d="M89.519,125.492l-3.884,4.823-4.51-4.419Z" transform="translate(-3.228 6.556)" fill="#c60020"/>
      <path id="Path_4309" data-name="Path 4309" d="M129.984,75.594l4.8,3.918-4.45,4.478Z" transform="translate(-0.676 3.949)" fill="#c60020"/>
      <path id="Path_4310" data-name="Path 4310" d="M38.554,84.162,33.73,80.279l4.419-4.51Z" transform="translate(-5.705 3.958)" fill="#c60020"/>
      <path id="Path_4311" data-name="Path 4311" d="M89.187,34.189,93.9,30.171l3.612,5.178Z" transform="translate(-2.807 1.576)" fill="#c60020"/>
      <path id="Path_4312" data-name="Path 4312" d="M81.256,125.7l-4.682,4.052L72.925,124.6Z" transform="translate(-3.657 6.509)" fill="#c60020"/>
      <path id="Path_4313" data-name="Path 4313" d="M130.033,83.845l4.018,4.711-5.178,3.612Z" transform="translate(-0.734 4.38)" fill="#c60020"/>
      <path id="Path_4314" data-name="Path 4314" d="M38.524,75.913l-4.052-4.682,5.153-3.648Z" transform="translate(-5.666 3.531)" fill="#c60020"/>
      <path id="Path_4315" data-name="Path 4315" d="M95.914,35.4l5.254-3.278,2.806,5.656Z" transform="translate(-2.456 1.678)" fill="#c60020"/>
      <path id="Path_4316" data-name="Path 4316" d="M74.5,124.766l-5.231,3.315-2.845-5.636Z" transform="translate(-3.996 6.397)" fill="#c60020"/>
      <path id="Path_4317" data-name="Path 4317" d="M129,90.583l3.278,5.254-5.656,2.806Z" transform="translate(-0.852 4.732)" fill="#c60020"/>
      <path id="Path_4318" data-name="Path 4318" d="M39.633,69.17,36.318,63.94l5.636-2.845Z" transform="translate(-5.569 3.192)" fill="#c60020"/>
      <path id="Path_4319" data-name="Path 4319" d="M102.359,37.578l5.679-2.47,1.943,6.006Z" transform="translate(-2.119 1.834)" fill="#c60020"/>
      <path id="Path_4320" data-name="Path 4320" d="M68.022,122.861l-5.661,2.51-1.987-5.993Z" transform="translate(-4.313 6.237)" fill="#c60020"/>
      <path id="Path_4321" data-name="Path 4321" d="M127.006,97.041l2.47,5.679-6.006,1.943Z" transform="translate(-1.016 5.07)" fill="#c60020"/>
      <path id="Path_4322" data-name="Path 4322" d="M41.723,62.7l-2.51-5.661,5.993-1.987Z" transform="translate(-5.418 2.876)" fill="#c60020"/>
      <path id="Path_4323" data-name="Path 4323" d="M108.881,40.946l6-1.539.969,6.239Z" transform="translate(-1.778 2.059)" fill="#c60020"/>
      <path id="Path_4324" data-name="Path 4324" d="M61.453,119.76l-5.987,1.582-1.012-6.231Z" transform="translate(-4.622 6.014)" fill="#c60020"/>
      <path id="Path_4325" data-name="Path 4325" d="M123.842,103.578l1.539,6-6.239.969Z" transform="translate(-1.242 5.411)" fill="#c60020"/>
      <path id="Path_4326" data-name="Path 4326" d="M45.028,56.15l-1.582-5.987,6.231-1.012Z" transform="translate(-5.197 2.568)" fill="#c60020"/>
      <path id="Path_4327" data-name="Path 4327" d="M114.231,44.808l6.156-.67.072,6.313Z" transform="translate(-1.499 2.306)" fill="#c60020"/>
      <path id="Path_4328" data-name="Path 4328" d="M56.058,116.112l-6.151.713-.115-6.312Z" transform="translate(-4.865 5.774)" fill="#c60020"/>
      <path id="Path_4329" data-name="Path 4329" d="M120.164,108.94l.67,6.156-6.313.072Z" transform="translate(-1.484 5.691)" fill="#c60020"/>
      <path id="Path_4330" data-name="Path 4330" d="M48.86,50.767l-.713-6.151,6.312-.115Z" transform="translate(-4.951 2.325)" fill="#c60020"/>
      <path id="Path_4331" data-name="Path 4331" d="M119.32,49.77l6.186.28-.9,6.249Z" transform="translate(-1.233 2.6)" fill="#c60020"/>
      <path id="Path_4332" data-name="Path 4332" d="M50.956,111.362l-6.188-.237.852-6.256Z" transform="translate(-5.128 5.479)" fill="#c60020"/>
      <path id="Path_4333" data-name="Path 4333" d="M115.409,114.045l-.28,6.186-6.249-.9Z" transform="translate(-1.778 5.958)" fill="#c60020"/>
      <path id="Path_4334" data-name="Path 4334" d="M53.815,45.68l.237-6.188,6.256.852Z" transform="translate(-4.655 2.063)" fill="#c60020"/>
      <path id="Path_4335" data-name="Path 4335" d="M124.017,56.22l6.042,1.355-1.973,6Z" transform="translate(-0.988 2.937)" fill="#c60020"/>
      <path id="Path_4336" data-name="Path 4336" d="M46.009,104.932l-6.051-1.312,1.931-6.011Z" transform="translate(-5.379 5.099)" fill="#c60020"/>
      <path id="Path_4337" data-name="Path 4337" d="M109,118.77l-1.355,6.042-6-1.973Z" transform="translate(-2.156 6.205)" fill="#c60020"/>
      <path id="Path_4338" data-name="Path 4338" d="M60.284,40.762,61.6,34.71l6.011,1.931Z" transform="translate(-4.317 1.813)" fill="#c60020"/>
      <path id="Path_4339" data-name="Path 4339" d="M126.955,62.05l5.787,2.2-2.81,5.655Z" transform="translate(-0.834 3.242)" fill="#c60020"/>
      <path id="Path_4340" data-name="Path 4340" d="M42.834,99.113l-5.8-2.162L39.8,91.276Z" transform="translate(-5.532 4.769)" fill="#c60020"/>
      <path id="Path_4341" data-name="Path 4341" d="M103.189,121.763l-2.2,5.787-5.655-2.809Z" transform="translate(-2.486 6.361)" fill="#c60020"/>
      <path id="Path_4342" data-name="Path 4342" d="M66.124,37.642l2.162-5.8,5.675,2.768Z" transform="translate(-4.012 1.663)" fill="#c60020"/>
      <path id="Path_4343" data-name="Path 4343" d="M129.278,69.312l5.34,3.136-3.71,5.108Z" transform="translate(-0.713 3.621)" fill="#c60020"/>
      <path id="Path_4344" data-name="Path 4344" d="M40.212,91.849l-5.362-3.1,3.674-5.134Z" transform="translate(-5.646 4.368)" fill="#c60020"/>
      <path id="Path_4345" data-name="Path 4345" d="M95.938,124.177l-3.136,5.34-5.108-3.71Z" transform="translate(-2.885 6.488)" fill="#c60020"/>
      <path id="Path_4346" data-name="Path 4346" d="M73.4,35.112l3.1-5.362,5.134,3.674Z" transform="translate(-3.632 1.554)" fill="#c60020"/>
      <path id="Path_4347" data-name="Path 4347" d="M131.639,63.256a49.211,49.211,0,1,0,3.858,19.1,48.889,48.889,0,0,0-3.858-19.1m-5.923,35.693a42.782,42.782,0,1,1,3.349-16.594,42.482,42.482,0,0,1-3.349,16.594" transform="translate(-5.515 1.739)" fill="#eb4548"/>
      <path id="Path_4348" data-name="Path 4348" d="M86.949,138.5a55.633,55.633,0,1,1,21.724-4.386A55.456,55.456,0,0,1,86.949,138.5m0-109.587A53.778,53.778,0,1,0,140.727,82.69,53.838,53.838,0,0,0,86.949,28.912m0,92.079a38.3,38.3,0,1,1,27.083-11.218,38.055,38.055,0,0,1-27.083,11.218m0-74.569A36.269,36.269,0,1,0,123.218,82.69,36.309,36.309,0,0,0,86.949,46.421" transform="translate(-5.84 1.404)" fill="#040504"/>
      <path id="Path_4349" data-name="Path 4349" d="M84.7,15.963s4.319,3.491,4.319,6.54-1.934,5.518-4.319,5.518S80.381,25.55,80.381,22.5s4.319-6.54,4.319-6.54" transform="translate(-3.267 0.834)" fill="#eb4548"/>
      <path id="Path_4350" data-name="Path 4350" d="M94.669,16.748s3.731,4.1,3.262,7.116-2.762,5.161-5.119,4.8-3.889-3.1-3.419-6.108,5.276-5.808,5.276-5.808" transform="translate(-2.801 0.875)" fill="#eb4548"/>
      <path id="Path_4351" data-name="Path 4351" d="M104.4,19.027s3.055,4.621,2.127,7.527-3.524,4.682-5.8,3.968-3.366-3.648-2.438-6.553,6.109-4.941,6.109-4.941" transform="translate(-2.349 0.994)" fill="#eb4548"/>
      <path id="Path_4352" data-name="Path 4352" d="M113.672,22.744s2.307,5.03.942,7.761-4.2,4.093-6.342,3.043-2.763-4.115-1.4-6.846,6.8-3.959,6.8-3.959" transform="translate(-1.921 1.188)" fill="#eb4548"/>
      <path id="Path_4353" data-name="Path 4353" d="M122.259,27.813s1.5,5.32-.264,7.813-4.786,3.408-6.736,2.048-2.1-4.486-.328-6.978,7.329-2.882,7.329-2.882" transform="translate(-1.527 1.453)" fill="#eb4548"/>
      <path id="Path_4354" data-name="Path 4354" d="M129.961,34.117s.667,5.485-1.466,7.68-5.254,2.644-6.973,1-1.381-4.75.75-6.945,7.689-1.739,7.689-1.739" transform="translate(-1.175 1.78)" fill="#eb4548"/>
      <path id="Path_4355" data-name="Path 4355" d="M136.6,41.524s-.186,5.522-2.631,7.369-5.6,1.817-7.047-.064-.633-4.9,1.812-6.75,7.866-.555,7.866-.555" transform="translate(-0.873 2.146)" fill="#eb4548"/>
      <path id="Path_4356" data-name="Path 4356" d="M142.009,49.857s-1.034,5.43-3.735,6.884-5.815.948-6.953-1.13.129-4.942,2.831-6.4,7.858.643,7.858.643" transform="translate(-0.628 2.544)" fill="#eb4548"/>
      <path id="Path_4357" data-name="Path 4357" d="M146.072,58.918s-1.858,5.21-4.752,6.238-5.893.057-6.7-2.17.889-4.865,3.783-5.894,7.667,1.826,7.667,1.826" transform="translate(-0.444 2.971)" fill="#eb4548"/>
      <path id="Path_4358" data-name="Path 4358" d="M148.69,68.487s-2.639,4.867-5.658,5.444-5.832-.835-6.284-3.158,1.628-4.673,4.647-5.251,7.3,2.964,7.3,2.964" transform="translate(-0.326 3.42)" fill="#eb4548"/>
      <path id="Path_4359" data-name="Path 4359" d="M149.8,78.339s-3.358,4.41-6.43,4.525-5.635-1.71-5.724-4.073,2.329-4.372,5.4-4.486,6.753,4.034,6.753,4.034" transform="translate(-0.276 3.882)" fill="#eb4548"/>
      <path id="Path_4360" data-name="Path 4360" d="M149.377,88.245s-4,3.85-7.051,3.5-5.305-2.542-5.03-4.892,2.975-3.968,6.028-3.616,6.053,5.01,6.053,5.01" transform="translate(-0.295 4.346)" fill="#eb4548"/>
      <path id="Path_4361" data-name="Path 4361" d="M147.43,97.973s-4.544,3.2-7.508,2.389-4.851-3.316-4.216-5.6,3.551-3.471,6.514-2.66,5.21,5.867,5.21,5.867" transform="translate(-0.383 4.799)" fill="#eb4548"/>
      <path id="Path_4362" data-name="Path 4362" d="M144.006,107.3s-4.983,2.474-7.788,1.224-4.284-4.011-3.305-6.168,4.044-2.893,6.848-1.643,4.245,6.587,4.245,6.587" transform="translate(-0.539 5.23)" fill="#eb4548"/>
      <path id="Path_4363" data-name="Path 4363" d="M139.184,115.993s-5.306,1.69-7.884.031-3.616-4.613-2.316-6.6,4.443-2.247,7.021-.587,3.18,7.153,3.18,7.153" transform="translate(-0.757 5.629)" fill="#eb4548"/>
      <path id="Path_4364" data-name="Path 4364" d="M133.079,123.86s-5.5.867-7.8-1.164-2.862-5.107-1.272-6.87,4.736-1.547,7.029.483,2.04,7.551,2.04,7.551" transform="translate(-1.035 5.989)" fill="#eb4548"/>
      <path id="Path_4365" data-name="Path 4365" d="M125.834,130.712s-5.574.023-7.526-2.331-2.042-5.48-.2-6.983,4.919-.811,6.872,1.543.853,7.771.853,7.771" transform="translate(-1.365 6.301)" fill="#eb4548"/>
      <path id="Path_4366" data-name="Path 4366" d="M117.621,136.388s-5.512-.821-7.078-3.443-1.174-5.725.879-6.93,4.987-.058,6.553,2.564-.354,7.809-.354,7.809" transform="translate(-1.742 6.558)" fill="#eb4548"/>
      <path id="Path_4367" data-name="Path 4367" d="M108.632,140.753s-5.32-1.646-6.465-4.474-.278-5.836,1.936-6.716,4.937.7,6.082,3.527-1.553,7.663-1.553,7.663" transform="translate(-2.156 6.756)" fill="#eb4548"/>
      <path id="Path_4368" data-name="Path 4368" d="M99.078,143.7s-5-2.432-5.7-5.4.624-5.808,2.948-6.344,4.771,1.437,5.466,4.407-2.715,7.338-2.715,7.338" transform="translate(-2.598 6.889)" fill="#eb4548"/>
      <path id="Path_4369" data-name="Path 4369" d="M69.311,143.562s-3.4-4.382-2.691-7.348,3.161-4.931,5.483-4.388,3.631,3.388,2.925,6.354-5.718,5.381-5.718,5.381" transform="translate(-3.991 6.882)" fill="#eb4548"/>
      <path id="Path_4370" data-name="Path 4370" d="M59.792,140.518s-2.68-4.845-1.526-7.669,3.884-4.394,6.095-3.506,3.067,3.9,1.912,6.723-6.481,4.452-6.481,4.452" transform="translate(-4.438 6.744)" fill="#eb4548"/>
      <path id="Path_4371" data-name="Path 4371" d="M50.856,136.068s-1.9-5.194-.326-7.81,4.515-3.754,6.563-2.542,2.431,4.317.854,6.933-7.091,3.419-7.091,3.419" transform="translate(-4.859 6.543)" fill="#eb4548"/>
      <path id="Path_4372" data-name="Path 4372" d="M42.716,130.314s-1.08-5.421.881-7.768,5.04-3.027,6.877-1.518,1.737,4.634-.224,6.982-7.534,2.3-7.534,2.3" transform="translate(-5.251 6.281)" fill="#eb4548"/>
      <path id="Path_4373" data-name="Path 4373" d="M35.569,123.393s-.234-5.521,2.067-7.544,5.447-2.228,7.031-.459,1,4.843-1.3,6.866-7.8,1.136-7.8,1.136" transform="translate(-5.609 5.966)" fill="#eb4548"/>
      <path id="Path_4374" data-name="Path 4374" d="M29.58,115.468s.62-5.491,3.2-7.142,5.728-1.377,7.02.61.244,4.938-2.34,6.589-7.883-.058-7.883-.058" transform="translate(-5.921 5.603)" fill="#eb4548"/>
      <path id="Path_4375" data-name="Path 4375" d="M24.874,106.725s1.459-5.333,4.268-6.572,5.872-.495,6.843,1.667-.52,4.917-3.327,6.157-7.783-1.251-7.783-1.251" transform="translate(-6.167 5.201)" fill="#eb4548"/>
      <path id="Path_4376" data-name="Path 4376" d="M21.563,97.371s2.264-5.049,5.231-5.849,5.879.4,6.5,2.683-1.27,4.781-4.236,5.581-7.5-2.415-7.5-2.415" transform="translate(-6.34 4.768)" fill="#eb4548"/>
      <path id="Path_4377" data-name="Path 4377" d="M19.724,87.625s3.016-4.647,6.07-4.989,5.748,1.287,6.016,3.637-1.992,4.533-5.048,4.874-7.038-3.522-7.038-3.522" transform="translate(-6.436 4.315)" fill="#eb4548"/>
      <path id="Path_4378" data-name="Path 4378" d="M19.4,77.715s3.7-4.135,6.768-4.011,5.482,2.142,5.384,4.5-2.667,4.178-5.739,4.053S19.4,77.715,19.4,77.715" transform="translate(-6.453 3.85)" fill="#eb4548"/>
      <path id="Path_4379" data-name="Path 4379" d="M20.6,67.874s4.29-3.528,7.306-2.939,5.089,2.946,4.628,5.268-3.279,3.724-6.3,3.136S20.6,67.874,20.6,67.874" transform="translate(-6.391 3.389)" fill="#eb4548"/>
      <path id="Path_4380" data-name="Path 4380" d="M23.29,58.33s4.782-2.837,7.673-1.8,4.575,3.683,3.762,5.906-3.814,3.184-6.7,2.147-4.73-6.255-4.73-6.255" transform="translate(-6.25 2.941)" fill="#eb4548"/>
      <path id="Path_4381" data-name="Path 4381" d="M27.414,49.309s5.163-2.079,7.86-.616,3.953,4.332,2.807,6.407-4.261,2.57-6.956,1.106-3.711-6.9-3.711-6.9" transform="translate(-6.035 2.517)" fill="#eb4548"/>
      <path id="Path_4382" data-name="Path 4382" d="M32.872,41.028s5.423-1.273,7.863.582,3.239,4.88,1.787,6.756-4.606,1.894-7.045.04-2.605-7.378-2.605-7.378" transform="translate(-5.749 2.121)" fill="#eb4548"/>
      <path id="Path_4383" data-name="Path 4383" d="M39.542,33.685s5.556-.437,7.681,1.766,2.45,5.313.725,6.948-4.843,1.174-6.969-1.028-1.437-7.686-1.437-7.686" transform="translate(-5.406 1.758)" fill="#eb4548"/>
      <path id="Path_4384" data-name="Path 4384" d="M47.282,27.455s5.558.409,7.318,2.908,1.6,5.621-.353,6.976-4.969.427-6.729-2.072-.237-7.813-.237-7.813" transform="translate(-5.028 1.434)" fill="#eb4548"/>
      <path id="Path_4385" data-name="Path 4385" d="M55.905,22.468s5.43,1.247,6.785,3.982.718,5.8-1.424,6.842-4.976-.33-6.331-3.066.97-7.757.97-7.757" transform="translate(-4.619 1.174)" fill="#eb4548"/>
      <path id="Path_4386" data-name="Path 4386" d="M65.2,18.84s5.174,2.054,6.09,4.962-.184,5.84-2.46,6.546-4.867-1.08-5.784-3.989S65.2,18.84,65.2,18.84" transform="translate(-4.182 0.984)" fill="#eb4548"/>
      <path id="Path_4387" data-name="Path 4387" d="M74.954,16.654s4.8,2.814,5.256,5.827-1.082,5.742-3.441,6.1-4.644-1.8-5.1-4.817,3.287-7.106,3.287-7.106" transform="translate(-3.725 0.87)" fill="#eb4548"/>
    </g>
  </g>
  <g id="Group_900" data-name="Group 900">
    <g id="Group_899" data-name="Group 899" clip-path="url(#clip-path)">
      <path id="Path_4388" data-name="Path 4388" d="M21.1,131.585c.217-.009.4-.02.536-.034a1.5,1.5,0,0,0,.327-.059.407.407,0,0,0,.169-.092.192.192,0,0,0,.053-.144c.018-.2.031-.451.04-.753s.013-.653.013-1.054v-3.473q0-.616-.006-1c-.005-.258-.016-.5-.033-.727-.009-.088-.083-.154-.223-.2a4,4,0,0,0-.85-.093v-.352q.314,0,.72.019c.27.014.558.02.864.02s.636-.006.993-.02.711-.019,1.06-.019q.445,0,.779.033a4.524,4.524,0,0,1,.582.092,1.575,1.575,0,0,1,.431.164,1.918,1.918,0,0,1,.328.235,1.323,1.323,0,0,1,.385.563,2.107,2.107,0,0,1,.124.732,2.014,2.014,0,0,1-.1.661,1.714,1.714,0,0,1-.255.484,1.735,1.735,0,0,1-.347.34,2.685,2.685,0,0,1-.372.229,2.786,2.786,0,0,1-.432.163c-.139.039-.287.077-.444.112v.053a7.3,7.3,0,0,1,.994.182,2.35,2.35,0,0,1,.759.341,1.7,1.7,0,0,1,.529.582,1.983,1.983,0,0,1,.2.974,2.1,2.1,0,0,1-.268,1.092,2.406,2.406,0,0,1-.765.779,2.99,2.99,0,0,1-1.126.411,7.959,7.959,0,0,1-1.347.112q-.431,0-.877-.013t-.877-.014c-.087,0-.2,0-.334.007l-.418.013-.432.013c-.144,0-.273.007-.385.007Zm2.406-4.278a2.726,2.726,0,0,0,.288.014h.365a2.151,2.151,0,0,0,1.361-.381,1.687,1.687,0,0,0,.484-1.392,1.885,1.885,0,0,0-.248-1.038,1.133,1.133,0,0,0-.47-.387,2.259,2.259,0,0,0-.942-.152,1.9,1.9,0,0,0-.648.066.2.2,0,0,0-.137.183q-.027.3-.039.67t-.014.893Zm0,2.237q0,.641.006,1.047c0,.27.016.515.033.732a.212.212,0,0,0,.144.163,1.483,1.483,0,0,0,.523.059,3.259,3.259,0,0,0,1.243-.189,1.48,1.48,0,0,0,.667-.517,2.449,2.449,0,0,0,.315-1.322,2.63,2.63,0,0,0-.092-.745,1.351,1.351,0,0,0-.315-.537,1.537,1.537,0,0,0-.661-.4,3.871,3.871,0,0,0-1.21-.15q-.2,0-.372.006a1.375,1.375,0,0,0-.281.033Z" transform="translate(1.103 6.458)" fill="#040504"/>
      <path id="Path_4389" data-name="Path 4389" d="M28.779,123.62q.144,0,.366.006l.484.014.537.013c.183,0,.357.006.523.006H32.9c.427,0,.806-.008,1.139-.026a5.975,5.975,0,0,0,.706-.065c-.008.087-.018.221-.026.4s-.015.376-.02.589,0,.429,0,.647.012.41.02.576l-.354.014c-.025-.175-.063-.36-.11-.557a4.29,4.29,0,0,0-.177-.556,1.84,1.84,0,0,0-.163-.288.6.6,0,0,0-.262-.189,1.709,1.709,0,0,0-.471-.1c-.2-.018-.451-.026-.765-.026h-.968a.2.2,0,0,0-.157.046.3.3,0,0,0-.053.163c-.017.2-.031.443-.039.726s-.014.608-.014.974v1.439c.036,0,.085,0,.15.006s.138.006.216.006h.419a4.434,4.434,0,0,0,.713-.045.885.885,0,0,0,.425-.177.748.748,0,0,0,.228-.341,2.644,2.644,0,0,0,.112-.549h.327q-.066.668-.065,1.433t.039,1.393h-.34a4.975,4.975,0,0,0-.1-.616.819.819,0,0,0-.208-.4.839.839,0,0,0-.419-.209,3.561,3.561,0,0,0-.726-.059h-.425a1.645,1.645,0,0,0-.347.026v1.256c0,.375,0,.75.014,1.125s.022.676.039.9a.334.334,0,0,0,.033.163.274.274,0,0,0,.163.1,1.721,1.721,0,0,0,.386.053c.17.008.4.013.7.013.315,0,.573-.006.779-.019a3.6,3.6,0,0,0,.523-.066,1.081,1.081,0,0,0,.354-.13,1.009,1.009,0,0,0,.255-.228,2.325,2.325,0,0,0,.4-.674,6.58,6.58,0,0,0,.282-.818l.314.053a4.458,4.458,0,0,1-.039.445q-.039.327-.1.706c-.039.254-.077.493-.112.72s-.061.384-.079.471q-.313-.027-.968-.04t-1.8-.013H30.689c-.157,0-.329,0-.517.006l-.556.013-.524.014c-.165,0-.305.006-.418.006l.013-.366.811-.079a.384.384,0,0,0,.261-.124.676.676,0,0,0,.092-.372c.018-.253.031-.537.04-.85s.013-.663.013-1.047v-2.76c0-.47,0-.872-.006-1.2s-.012-.592-.02-.784a.322.322,0,0,0-.1-.249.756.756,0,0,0-.327-.092l-.667-.052Z" transform="translate(1.498 6.456)" fill="#040504"/>
      <path id="Path_4390" data-name="Path 4390" d="M44.484,131.956c-.148-.009-.371-.018-.667-.026s-.611-.013-.942-.013-.622,0-.9.013l-.87.026-.013-.366c.2-.008.361-.022.484-.04a.923.923,0,0,0,.275-.072q.092-.046.1-.1a.392.392,0,0,0-.013-.164c-.026-.113-.067-.266-.124-.458s-.12-.4-.189-.621-.142-.454-.217-.693-.141-.465-.2-.674q-.158-.013-.537-.013H39.1c-.24,0-.408,0-.5.013q-.275.851-.431,1.322a6.022,6.022,0,0,0-.209.746,1.2,1.2,0,0,0-.045.346.283.283,0,0,0,.117.222.836.836,0,0,0,.347.132,4.116,4.116,0,0,0,.628.059v.366q-.314,0-.642-.02t-.758-.019q-.289,0-.721.019t-.81.02v-.366a2.989,2.989,0,0,0,.464-.053.924.924,0,0,0,.327-.13.96.96,0,0,0,.248-.248,2.416,2.416,0,0,0,.229-.432c.069-.174.165-.427.287-.759s.258-.7.406-1.1.3-.822.458-1.263l.451-1.269.392-1.1c.118-.331.206-.589.268-.772s.12-.344.15-.458.054-.218.072-.314c.069-.008.153-.018.248-.026s.2-.022.3-.039.2-.038.295-.059a1.435,1.435,0,0,0,.228-.073q.158.549.374,1.25t.457,1.452q.243.751.485,1.517t.47,1.432q.229.668.419,1.2t.307.831a.628.628,0,0,0,.217.275.817.817,0,0,0,.346.1l.51.04Zm-4.5-7.326q-.235.732-.536,1.615t-.681,2.06c.1.009.257.016.484.02s.466.006.719.006.485,0,.694-.006.348-.011.419-.02q-.249-.863-.543-1.837t-.557-1.838" transform="translate(1.885 6.452)" fill="#040504"/>
      <path id="Path_4391" data-name="Path 4391" d="M51.381,126.424a4.706,4.706,0,0,0-.177-.974,2.51,2.51,0,0,0-.405-.818,2,2,0,0,0-.667-.563,2.025,2.025,0,0,0-.949-.209,2.346,2.346,0,0,0-1.06.223,2.392,2.392,0,0,0-.8.667,3.721,3.721,0,0,0-.608,1.262,6.144,6.144,0,0,0-.229,1.734,6.071,6.071,0,0,0,.177,1.491,3.749,3.749,0,0,0,.5,1.177,2.317,2.317,0,0,0,.889.844,2.683,2.683,0,0,0,2.676-.2,3.1,3.1,0,0,0,.987-1.511l.354.222a3.272,3.272,0,0,1-1.151,1.747,3.437,3.437,0,0,1-2.119.608,4.34,4.34,0,0,1-1.727-.32,2.923,2.923,0,0,1-1.23-.988,3.748,3.748,0,0,1-.621-1.263,5.833,5.833,0,0,1-.216-1.642,5.08,5.08,0,0,1,.366-2.008,4.087,4.087,0,0,1,.954-1.407,3.509,3.509,0,0,1,1.177-.771,4.21,4.21,0,0,1,1.583-.275,3.694,3.694,0,0,1,1.348.216,2.464,2.464,0,0,1,.85.517l.248-.68.315.1q-.039.275-.073.615t-.045.713q-.014.372-.02.739t.02.693Z" transform="translate(2.352 6.45)" fill="#040504"/>
      <path id="Path_4392" data-name="Path 4392" d="M54.155,126.011c0-.375,0-.681-.007-.915s-.011-.458-.019-.667a.359.359,0,0,0-.228-.347,2.975,2.975,0,0,0-.858-.1l.013-.366q.262,0,.746.02c.323.013.641.019.955.019.226,0,.51-.006.85-.019s.637-.02.889-.02l-.013.366a2.35,2.35,0,0,0-.791.105.362.362,0,0,0-.217.34c-.017.175-.028.39-.033.647s-.006.539-.006.844v1.452q.262.013.759.013h2.113q.5,0,.922-.013v-2.406c0-.227-.008-.427-.025-.6a.315.315,0,0,0-.236-.288,2.982,2.982,0,0,0-.811-.092v-.366l.935.026c.319.008.568.013.752.013.139,0,.3,0,.477-.006l.517-.013.452-.014c.135,0,.237-.006.307-.006v.366c-.2.008-.369.02-.5.033a1.036,1.036,0,0,0-.32.073.379.379,0,0,0-.17.13.374.374,0,0,0-.053.209q-.027.3-.033.667c0,.244-.006.532-.006.863v3.323q0,.668.006,1.119t.033.752a.488.488,0,0,0,.059.2.314.314,0,0,0,.164.125,1.409,1.409,0,0,0,.314.072c.13.018.3.03.5.039l-.013.366q-.341-.013-.838-.026t-.929-.013c-.13,0-.273,0-.425.006l-.45.014-.425.013c-.136,0-.256.006-.361.006v-.366c.2-.008.369-.021.5-.039a1.445,1.445,0,0,0,.321-.072.345.345,0,0,0,.17-.132.38.38,0,0,0,.052-.2c.008-.14.018-.336.026-.589s.013-.641.013-1.164v-1.557q-.379-.013-.9-.02t-1.092-.006q-.576,0-1.06.006t-.746.02v1.557c0,.418,0,.765.006,1.04s.016.512.033.713a.344.344,0,0,0,.236.34,3.335,3.335,0,0,0,.838.1v.366q-.341-.013-.85-.026t-1.021-.013q-.418,0-.87.013l-.791.026v-.366a3.305,3.305,0,0,0,.844-.1.352.352,0,0,0,.242-.315c.017-.165.031-.377.039-.634s.014-.639.014-1.144Z" transform="translate(2.77 6.458)" fill="#040504"/>
      <path id="Path_4393" data-name="Path 4393" d="M66.452,126.377v-.791c0-.223,0-.412-.007-.569s-.008-.287-.013-.392-.006-.191-.006-.262a.329.329,0,0,0-.079-.209.445.445,0,0,0-.248-.09l-.811-.079.065-.366q.223,0,.681.02t.915.019q.47,0,.968-.019t1.021-.02a5.355,5.355,0,0,1,1.419.143,1.764,1.764,0,0,1,.765.42,1.37,1.37,0,0,1,.4.621,2.463,2.463,0,0,1,.112.726,2.018,2.018,0,0,1-.183.9,1.791,1.791,0,0,1-.5.621,2.475,2.475,0,0,1-.72.392,5.236,5.236,0,0,1-.849.222v.053a4.56,4.56,0,0,1,.824.17,2.254,2.254,0,0,1,.667.327,1.688,1.688,0,0,1,.47.523,2.287,2.287,0,0,1,.262.745,5.838,5.838,0,0,1,.1.622q.039.333.066.635a1.3,1.3,0,0,0,.2.673.591.591,0,0,0,.5.216,1.79,1.79,0,0,0,.2-.013.742.742,0,0,0,.178-.039l-.053.379a2.486,2.486,0,0,1-.392.072,3.968,3.968,0,0,1-.5.034,1.633,1.633,0,0,1-1.157-.354,1.811,1.811,0,0,1-.438-1.2c-.018-.175-.034-.346-.046-.517s-.028-.346-.046-.529a2.21,2.21,0,0,0-.208-.772,1.223,1.223,0,0,0-.419-.47,1.606,1.606,0,0,0-.634-.229,5.489,5.489,0,0,0-.844-.059h-.392v1.989c0,.191,0,.362.006.509s.009.28.014.392.011.223.019.327a.6.6,0,0,0,.053.2.277.277,0,0,0,.157.124,1.4,1.4,0,0,0,.327.072c.14.018.327.036.563.053l-.026.366q-.354,0-.87-.02c-.344-.013-.648-.019-.909-.019q-.5,0-.935.019t-.8.02l.013-.366a3.775,3.775,0,0,0,.844-.112.3.3,0,0,0,.216-.281c.008-.079.015-.173.02-.281s.008-.246.013-.412.008-.362.013-.588.007-.492.007-.8Zm1.282,1.151h.392A2.516,2.516,0,0,0,69.7,127.1a1.729,1.729,0,0,0,.543-1.446,2.556,2.556,0,0,0-.072-.615,1.568,1.568,0,0,0-.19-.47,1.288,1.288,0,0,0-.458-.386,1.944,1.944,0,0,0-.9-.164,3.234,3.234,0,0,0-.372.02,2.242,2.242,0,0,0-.281.045.222.222,0,0,0-.183.223c-.009.087-.02.26-.033.517s-.02.669-.02,1.236Z" transform="translate(3.411 6.458)" fill="#040504"/>
      <path id="Path_4394" data-name="Path 4394" d="M73.112,123.62q.144,0,.366.006l.484.014.537.013c.183,0,.357.006.523.006h2.211c.427,0,.806-.008,1.139-.026a5.975,5.975,0,0,0,.706-.065c-.008.087-.018.221-.026.4s-.015.376-.019.589-.005.429,0,.647.011.41.019.576l-.354.014c-.025-.175-.063-.36-.11-.557a4.289,4.289,0,0,0-.177-.556,1.839,1.839,0,0,0-.163-.288.6.6,0,0,0-.262-.189,1.709,1.709,0,0,0-.471-.1c-.2-.018-.451-.026-.765-.026h-.968a.2.2,0,0,0-.157.046.3.3,0,0,0-.053.163c-.017.2-.031.443-.039.726s-.014.608-.014.974v1.439c.036,0,.085,0,.152.006s.137.006.215.006H76.3a4.434,4.434,0,0,0,.713-.045.885.885,0,0,0,.425-.177.748.748,0,0,0,.228-.341,2.644,2.644,0,0,0,.112-.549h.327q-.066.668-.065,1.433t.039,1.393h-.34a4.975,4.975,0,0,0-.1-.616.819.819,0,0,0-.208-.4.839.839,0,0,0-.419-.209,3.561,3.561,0,0,0-.726-.059h-.425a1.645,1.645,0,0,0-.347.026v1.256c0,.375,0,.75.014,1.125s.022.676.039.9a.334.334,0,0,0,.033.163.274.274,0,0,0,.163.1,1.721,1.721,0,0,0,.386.053c.17.008.4.013.7.013.315,0,.573-.006.779-.019a3.6,3.6,0,0,0,.523-.066,1.081,1.081,0,0,0,.354-.13,1.009,1.009,0,0,0,.255-.228,2.325,2.325,0,0,0,.4-.674,6.58,6.58,0,0,0,.282-.818l.314.053a4.458,4.458,0,0,1-.039.445q-.039.327-.1.706c-.039.254-.077.493-.112.72s-.061.384-.079.471q-.313-.027-.968-.04t-1.8-.013H75.022c-.157,0-.329,0-.517.006l-.556.013-.524.014c-.165,0-.305.006-.418.006l.013-.366.811-.079a.384.384,0,0,0,.261-.124.676.676,0,0,0,.092-.372c.018-.253.031-.537.04-.85s.013-.663.013-1.047v-2.76c0-.47,0-.872-.006-1.2s-.012-.592-.02-.784a.322.322,0,0,0-.1-.249.756.756,0,0,0-.327-.092l-.667-.052Z" transform="translate(3.814 6.456)" fill="#040504"/>
      <path id="Path_4395" data-name="Path 4395" d="M81.422,129.188a2.8,2.8,0,0,0,.478,1.877,1.833,1.833,0,0,0,1.524.647,2.15,2.15,0,0,0,.628-.09,1.37,1.37,0,0,0,.877-.779,1.73,1.73,0,0,0,.13-.7,1.368,1.368,0,0,0-.706-1.256c-.1-.061-.227-.133-.392-.216s-.345-.175-.537-.275l-.576-.3q-.287-.15-.51-.281a2.38,2.38,0,0,1-.948-.89,2.317,2.317,0,0,1-.282-1.137,2.383,2.383,0,0,1,.19-.968,2.192,2.192,0,0,1,.523-.74,2.282,2.282,0,0,1,.8-.47,3.127,3.127,0,0,1,1.034-.164,3.275,3.275,0,0,1,1.021.15,1.715,1.715,0,0,1,.68.374l.222-.576.327.078c-.043.254-.081.506-.112.759s-.052.491-.064.713-.023.425-.027.608-.006.331-.006.445l-.353.039a3.124,3.124,0,0,0-.137-.974,1.976,1.976,0,0,0-.371-.681,1.484,1.484,0,0,0-.547-.4,1.707,1.707,0,0,0-.665-.13,1.33,1.33,0,0,0-1.023.4,1.542,1.542,0,0,0-.37,1.092,1.506,1.506,0,0,0,.2.785,1.7,1.7,0,0,0,.7.6q.717.393,1.232.654t.867.484a2.1,2.1,0,0,1,.769.706,1.974,1.974,0,0,1,.261,1.06,2.374,2.374,0,0,1-.242,1.1,2.3,2.3,0,0,1-.654.785,2.776,2.776,0,0,1-.961.464,4.48,4.48,0,0,1-1.787.105c-.214-.031-.421-.071-.621-.118s-.39-.1-.569-.164a4.427,4.427,0,0,1-.464-.182c.017-.184.033-.378.045-.583s.024-.411.034-.621.015-.412.019-.608.006-.378.006-.543Z" transform="translate(4.23 6.447)" fill="#040504"/>
      <path id="Path_4396" data-name="Path 4396" d="M91.615,123.456a3.685,3.685,0,0,1,1.6.334,3.455,3.455,0,0,1,1.177.9,3.856,3.856,0,0,1,.719,1.334,5.345,5.345,0,0,1,.243,1.628,6.174,6.174,0,0,1-.282,1.962,3.876,3.876,0,0,1-.791,1.4,3.161,3.161,0,0,1-1.216.838,4.3,4.3,0,0,1-1.57.275,4.216,4.216,0,0,1-1.57-.281,3.322,3.322,0,0,1-1.21-.818,3.654,3.654,0,0,1-.778-1.334,5.62,5.62,0,0,1-.275-1.831,5.739,5.739,0,0,1,.248-1.708,3.98,3.98,0,0,1,.745-1.4,3.623,3.623,0,0,1,1.237-.949,3.919,3.919,0,0,1,1.707-.352Zm-.118.366a1.952,1.952,0,0,0-1.739,1.009A4.038,4.038,0,0,0,89.325,126a8.466,8.466,0,0,0,.02,3.466,4.012,4.012,0,0,0,.49,1.251,2.154,2.154,0,0,0,.785.773,2.1,2.1,0,0,0,.994.236,2.035,2.035,0,0,0,.929-.217,1.929,1.929,0,0,0,.759-.753,4.092,4.092,0,0,0,.411-1.225,8.852,8.852,0,0,0,.15-1.71,8.357,8.357,0,0,0-.157-1.684,4.406,4.406,0,0,0-.444-1.277,1.917,1.917,0,0,0-1.753-1.035Z" transform="translate(4.58 6.45)" fill="#040504"/>
      <path id="Path_4397" data-name="Path 4397" d="M97.545,126.377v-.791c0-.223,0-.412-.007-.569s-.008-.287-.013-.392-.006-.191-.006-.262a.328.328,0,0,0-.079-.209.445.445,0,0,0-.248-.09l-.811-.079.065-.366q.223,0,.681.02t.915.019q.47,0,.968-.019t1.021-.02a5.355,5.355,0,0,1,1.419.143,1.764,1.764,0,0,1,.765.42,1.37,1.37,0,0,1,.4.621,2.462,2.462,0,0,1,.112.726,2.018,2.018,0,0,1-.183.9,1.791,1.791,0,0,1-.5.621,2.475,2.475,0,0,1-.72.392,5.236,5.236,0,0,1-.849.222v.053a4.56,4.56,0,0,1,.824.17,2.255,2.255,0,0,1,.667.327,1.688,1.688,0,0,1,.47.523,2.288,2.288,0,0,1,.262.745,5.838,5.838,0,0,1,.1.622q.039.333.066.635a1.3,1.3,0,0,0,.2.673.591.591,0,0,0,.5.216,1.79,1.79,0,0,0,.2-.013.741.741,0,0,0,.178-.039l-.053.379a2.486,2.486,0,0,1-.392.072,3.968,3.968,0,0,1-.5.034,1.633,1.633,0,0,1-1.157-.354,1.81,1.81,0,0,1-.438-1.2c-.018-.175-.034-.346-.046-.517s-.028-.346-.046-.529a2.209,2.209,0,0,0-.208-.772,1.223,1.223,0,0,0-.419-.47,1.606,1.606,0,0,0-.635-.229,5.489,5.489,0,0,0-.844-.059h-.392v1.989c0,.191,0,.362.006.509s.009.28.014.392.011.223.019.327a.6.6,0,0,0,.053.2.277.277,0,0,0,.157.124,1.4,1.4,0,0,0,.327.072c.14.018.327.036.563.053l-.026.366q-.354,0-.87-.02c-.344-.013-.648-.019-.909-.019q-.5,0-.935.019t-.8.02l.013-.366a3.775,3.775,0,0,0,.844-.112.3.3,0,0,0,.216-.281c.008-.079.015-.173.02-.281s.008-.246.013-.412.008-.362.013-.588.007-.492.007-.8Zm1.282,1.151h.392a2.516,2.516,0,0,0,1.576-.425,1.729,1.729,0,0,0,.543-1.446,2.555,2.555,0,0,0-.072-.615,1.569,1.569,0,0,0-.19-.47,1.288,1.288,0,0,0-.458-.386,1.944,1.944,0,0,0-.9-.164,3.234,3.234,0,0,0-.372.02,2.242,2.242,0,0,0-.281.045.222.222,0,0,0-.183.223c-.009.087-.02.26-.033.517s-.02.669-.02,1.236Z" transform="translate(5.035 6.458)" fill="#040504"/>
      <path id="Path_4398" data-name="Path 4398" d="M108.151,128.71q0,1.021.02,1.6c.013.384.028.653.045.81a.492.492,0,0,0,.079.268.364.364,0,0,0,.248.112c.218.026.395.046.529.059s.3.024.491.033l-.026.366q-.314,0-.909-.02t-1.249-.019q-.458,0-.949.019t-.948.02l-.053-.366c.14-.008.281-.02.425-.033s.325-.033.543-.059a.675.675,0,0,0,.308-.1.332.332,0,0,0,.11-.255c.008-.114.018-.238.026-.374s.015-.3.02-.49.006-.417.006-.673V124.8q0-.485-.014-.746c-.444,0-.8.008-1.052.026a2.582,2.582,0,0,0-.6.1.684.684,0,0,0-.315.19,1.144,1.144,0,0,0-.176.314,7.1,7.1,0,0,0-.249.681q-.1.339-.208.732l-.341-.092c.035-.166.066-.36.092-.583s.053-.448.079-.68.047-.454.065-.667.035-.395.053-.543a6.053,6.053,0,0,0,.935.1q.647.033,1.864.033h1.033q.732,0,1.23-.006t.83-.02c.223-.008.406-.021.549-.039s.277-.039.4-.065c-.009.053-.022.161-.04.327s-.033.36-.045.582-.024.462-.033.72-.009.5,0,.739l-.354.132c-.044-.384-.092-.7-.144-.955a4.39,4.39,0,0,0-.144-.563.548.548,0,0,0-.124-.222.645.645,0,0,0-.307-.15,3.219,3.219,0,0,0-.621-.079q-.4-.019-1.066-.006,0,.262-.006.746t-.007,1.021Z" transform="translate(5.429 6.454)" fill="#040504"/>
      <path id="Path_4399" data-name="Path 4399" d="M123.273,131.934c-.253.061-.5.108-.739.144a5.155,5.155,0,0,1-.74.052,1.345,1.345,0,0,1-.411-.065,1.9,1.9,0,0,1-.431-.209,3.707,3.707,0,0,1-.5-.385c-.179-.162-.382-.356-.608-.583a3.113,3.113,0,0,1-.883.85,2.457,2.457,0,0,1-1.367.354,3.3,3.3,0,0,1-.962-.13,2.052,2.052,0,0,1-.765-.432,2.19,2.19,0,0,1-.485-.7,2.23,2.23,0,0,1-.182-.909,1.9,1.9,0,0,1,.176-.85,1.994,1.994,0,0,1,.478-.615,6.226,6.226,0,0,1,.53-.412c.2-.144.4-.277.582-.4a5.49,5.49,0,0,1-.543-.87,2.354,2.354,0,0,1-.1-1.851,1.843,1.843,0,0,1,.419-.654,1.979,1.979,0,0,1,.667-.431,2.387,2.387,0,0,1,.889-.157,2.191,2.191,0,0,1,.818.144,1.815,1.815,0,0,1,.6.379,1.6,1.6,0,0,1,.366.543,1.674,1.674,0,0,1,.124.634,1.332,1.332,0,0,1-.189.746,1.932,1.932,0,0,1-.5.51c-.139.1-.3.218-.49.34s-.443.275-.765.458q.47.576.993,1.145t.955,1.014q.144-.3.248-.518c.071-.143.132-.275.184-.392s.1-.226.157-.326.1-.212.157-.335a5.319,5.319,0,0,1,.732-1.176,1.079,1.079,0,0,1,.824-.419.582.582,0,0,1,.465.163.564.564,0,0,1,.137.372.484.484,0,0,1-.052.21.675.675,0,0,1-.118.169.2.2,0,0,1-.236.065.745.745,0,0,0-.275-.065.713.713,0,0,0-.491.2,3.232,3.232,0,0,0-.517.7q-.183.3-.391.691t-.5.926q.366.391.706.71a5.535,5.535,0,0,0,.674.548,2.864,2.864,0,0,0,.667.345,1.875,1.875,0,0,0,.7.105Zm-6.881-2.381a2.119,2.119,0,0,0,.118.713,1.677,1.677,0,0,0,.877.981,1.572,1.572,0,0,0,.693.15,1.691,1.691,0,0,0,.962-.275,1.441,1.441,0,0,0,.294-.255,2.037,2.037,0,0,0,.2-.268q-.406-.432-1.014-1.112t-1.3-1.517a2.864,2.864,0,0,0-.576.628,1.647,1.647,0,0,0-.248.942Zm1.818-5.481a.955.955,0,0,0-.687.307,1.421,1.421,0,0,0-.307,1.027,1.875,1.875,0,0,0,.242.929,5.423,5.423,0,0,0,.543.8,3.494,3.494,0,0,0,.884-.779,1.551,1.551,0,0,0,.346-.987,1.568,1.568,0,0,0-.262-.923.857.857,0,0,0-.745-.372Z" transform="translate(6.019 6.461)" fill="#040504"/>
      <path id="Path_4400" data-name="Path 4400" d="M128.042,129.188a2.8,2.8,0,0,0,.478,1.877,1.833,1.833,0,0,0,1.524.647,2.15,2.15,0,0,0,.628-.09,1.37,1.37,0,0,0,.877-.779,1.73,1.73,0,0,0,.13-.7,1.368,1.368,0,0,0-.706-1.256c-.1-.061-.227-.133-.392-.216s-.345-.175-.537-.275l-.576-.3q-.287-.15-.51-.281a2.38,2.38,0,0,1-.948-.89,2.317,2.317,0,0,1-.282-1.137,2.383,2.383,0,0,1,.19-.968,2.191,2.191,0,0,1,.523-.74,2.282,2.282,0,0,1,.8-.47,3.127,3.127,0,0,1,1.034-.164,3.275,3.275,0,0,1,1.021.15,1.715,1.715,0,0,1,.68.374l.222-.576.327.078c-.043.254-.081.506-.112.759s-.052.491-.064.713-.023.425-.027.608-.006.331-.006.445l-.353.039a3.124,3.124,0,0,0-.137-.974,1.976,1.976,0,0,0-.371-.681,1.484,1.484,0,0,0-.547-.4,1.707,1.707,0,0,0-.665-.13,1.33,1.33,0,0,0-1.023.4,1.542,1.542,0,0,0-.37,1.092,1.506,1.506,0,0,0,.2.785,1.705,1.705,0,0,0,.7.6q.717.393,1.232.654t.867.484a2.1,2.1,0,0,1,.769.706,1.974,1.974,0,0,1,.261,1.06,2.374,2.374,0,0,1-.242,1.1,2.3,2.3,0,0,1-.654.785,2.776,2.776,0,0,1-.961.464,4.48,4.48,0,0,1-1.787.105c-.214-.031-.421-.071-.621-.118s-.39-.1-.569-.164a4.426,4.426,0,0,1-.464-.182c.017-.184.033-.378.045-.583s.024-.411.034-.621.015-.412.019-.608.006-.378.006-.543Z" transform="translate(6.665 6.447)" fill="#040504"/>
      <path id="Path_4401" data-name="Path 4401" d="M134.942,126.142v-1.157c0-.136,0-.25-.007-.347s-.006-.179-.006-.248a.509.509,0,0,0-.065-.236.282.282,0,0,0-.222-.092l-.85-.092.092-.366c.061,0,.146,0,.255.006l.372.02c.14.008.284.015.432.02s.293.006.431.006c.254,0,.543-.008.87-.026s.708-.026,1.145-.026a6.608,6.608,0,0,1,.837.046,3.848,3.848,0,0,1,.615.124,1.889,1.889,0,0,1,.452.2,2.378,2.378,0,0,1,.333.248,1.963,1.963,0,0,1,.51.772,2.865,2.865,0,0,1,.17,1.007,3.024,3.024,0,0,1-.177,1.08,2.337,2.337,0,0,1-.5.8,2.378,2.378,0,0,1-.883.563,3.172,3.172,0,0,1-1.092.183,4.2,4.2,0,0,1-.542-.033,1.663,1.663,0,0,1-.412-.1l.039-.38c.1.018.2.035.32.053a2.5,2.5,0,0,0,.374.026,1.465,1.465,0,0,0,.595-.124,1.1,1.1,0,0,0,.465-.386,2.083,2.083,0,0,0,.3-.654,3.419,3.419,0,0,0,.118-.954,2.285,2.285,0,0,0-.419-1.517,1.3,1.3,0,0,0-.6-.419,2.692,2.692,0,0,0-.85-.118c-.166,0-.3,0-.392.013a.8.8,0,0,0-.223.046.235.235,0,0,0-.1.072.166.166,0,0,0-.025.092c-.019.2-.034.474-.046.818s-.02.779-.02,1.3v3.284c0,.383,0,.689.014.915s.017.415.025.563a.409.409,0,0,0,.112.275.793.793,0,0,0,.36.092l.811.092-.014.366q-.431,0-.974-.02c-.362-.013-.718-.02-1.066-.02-.3,0-.6.007-.9.02s-.59.02-.87.02l.027-.366.562-.053a.952.952,0,0,0,.445-.105c.069-.052.108-.178.118-.379.017-.279.033-.632.045-1.06s.02-.877.02-1.347Z" transform="translate(6.986 6.458)" fill="#040504"/>
      <path id="Path_4402" data-name="Path 4402" d="M148.453,131.956c-.148-.009-.371-.018-.667-.026s-.611-.013-.942-.013-.622,0-.9.013l-.87.026-.013-.366c.2-.008.361-.022.484-.04a.923.923,0,0,0,.275-.072q.092-.046.1-.1a.391.391,0,0,0-.013-.164c-.026-.113-.067-.266-.124-.458s-.12-.4-.189-.621-.142-.454-.217-.693-.141-.465-.2-.674q-.158-.013-.537-.013h-1.576c-.24,0-.408,0-.5.013q-.275.851-.431,1.322a6.021,6.021,0,0,0-.209.746,1.2,1.2,0,0,0-.045.346.283.283,0,0,0,.117.222.836.836,0,0,0,.347.132,4.116,4.116,0,0,0,.628.059v.366q-.314,0-.642-.02t-.758-.019q-.289,0-.721.019t-.81.02v-.366a2.989,2.989,0,0,0,.464-.053.924.924,0,0,0,.327-.13.96.96,0,0,0,.248-.248,2.416,2.416,0,0,0,.229-.432c.069-.174.165-.427.287-.759s.258-.7.406-1.1.3-.822.458-1.263l.451-1.269.392-1.1c.118-.331.206-.589.268-.772s.12-.344.15-.458.054-.218.072-.314c.069-.008.153-.018.248-.026s.2-.022.3-.039.2-.038.295-.059a1.435,1.435,0,0,0,.228-.073q.158.549.374,1.25t.457,1.452q.243.751.485,1.517t.47,1.432q.229.668.419,1.2t.307.831a.628.628,0,0,0,.217.275.817.817,0,0,0,.346.1l.51.04Zm-4.5-7.326q-.235.732-.536,1.615t-.681,2.06c.1.009.257.016.484.02s.466.006.719.006.485,0,.694-.006.348-.011.419-.02q-.249-.863-.543-1.837t-.557-1.838" transform="translate(7.316 6.452)" fill="#040504"/>
    </g>
  </g>
</svg>
