<svg xmlns="http://www.w3.org/2000/svg" xmlns:xlink="http://www.w3.org/1999/xlink" width="62.855" height="77.838" viewBox="0 0 62.855 77.838">
  <defs>
    <clipPath id="clip-path">
      <path id="Path_2377" data-name="Path 2377" d="M43.469,41.87C57.563,39,67.813,33.1,72.267,25.32c1.769-2.669,3.645-7.306,3.371-14.887a11.456,11.456,0,0,0-4.286-8.8A7.323,7.323,0,0,0,60.018,4.469h0s7.672-2.913,12.95,3.92c1.785,2.3,2.013,6.117,1.159,10.113a33.645,33.645,0,0,1-1.464,4.439C69.094,31.406,58.722,37.92,43.957,41.046L63.328,9.671H31.937V9.7a20.722,20.722,0,0,0-12.675,4.393,15.422,15.422,0,0,0-6.117,9.228,6.618,6.618,0,0,0,7.977,7.733h0S14.579,26.541,19.445,17.4c2.181-4.1,6.513-6.788,12.63-7.016H54.39l-20.271,32.9c-9.335,3.035-17.145,9.2-15.924,19.127a16.687,16.687,0,0,0,1.3,4.591L12.81,77.837H47.069a20.851,20.851,0,0,0,11.806-4.393,15.422,15.422,0,0,0,6.116-9.228,6.618,6.618,0,0,0-7.977-7.733h0S63.557,61,58.691,70.134c-2.059,3.859-6.025,6.483-11.592,6.955a11.445,11.445,0,0,1-1.19.031h-11A16.145,16.145,0,0,1,24.4,72.666L43.438,41.84ZM18.927,62.34c-.4-3.264-.275-13.255,14.7-18.212L19.979,66.29a16.126,16.126,0,0,1-1.052-3.951Zm11.882,14.8H21.687l2.379-3.844A17.335,17.335,0,0,0,30.809,77.135Z" transform="translate(-12.81 0.001)" fill="none"/>
    </clipPath>
    <linearGradient id="linear-gradient" x1="0.001" y1="0.509" x2="0.854" y2="0.494" gradientUnits="objectBoundingBox">
      <stop offset="0.09" stop-color="#8e4a2a"/>
      <stop offset="0.29" stop-color="#b36e4d"/>
      <stop offset="0.39" stop-color="#c98463"/>
      <stop offset="0.64" stop-color="#b68872"/>
      <stop offset="0.9" stop-color="#975e4d"/>
    </linearGradient>
  </defs>
  <g id="Layer_1" data-name="Layer 1" transform="translate(-47.714 0.001)">
    <g id="Group_863" data-name="Group 863" transform="translate(47.714 -0.001)">
      <g id="Group_860" data-name="Group 860" clip-path="url(#clip-path)">
        <rect id="Rectangle_15" data-name="Rectangle 15" width="73.368" height="82.641" transform="translate(-5.766 -1.54)" fill="url(#linear-gradient)"/>
      </g>
    </g>
  </g>
</svg>
