<svg xmlns="http://www.w3.org/2000/svg" xmlns:xlink="http://www.w3.org/1999/xlink" width="249" height="293.55" viewBox="0 0 249 293.55">
  <defs>
    <clipPath id="clip-path">
      <path id="Path_2377" data-name="Path 2377" d="M87.678,102.246c34.417-7,59.447-21.417,70.323-40.414,4.321-6.518,8.9-17.842,8.232-36.354A27.975,27.975,0,0,0,155.766,3.987c-9.126-7.524-22.982-3.948-27.675,6.928h0s18.736-7.114,31.623,9.573c4.358,5.624,4.917,14.936,2.831,24.7a82.161,82.161,0,0,1-3.576,10.839c-8.716,20.672-34.044,36.577-70.1,44.213l47.3-76.618H59.518v.074c-8.6,0-19.592,2.2-30.953,10.727-9.2,6.928-13.335,15.085-14.936,22.535-2.421,11.435,8.083,21.455,19.48,18.885h0S17.131,64.812,29.013,42.5c5.326-10.02,15.9-16.575,30.841-17.134h54.493l-49.5,80.343c-22.8,7.412-41.866,22.46-38.886,46.708a40.748,40.748,0,0,0,3.166,11.212L12.81,190.076H96.468a50.918,50.918,0,0,0,28.83-10.727c9.2-6.928,13.335-15.085,14.936-22.535,2.421-11.435-8.083-21.455-19.48-18.885h0s15.979,11.025,4.1,33.337c-5.028,9.424-14.713,15.83-28.308,16.985a27.945,27.945,0,0,1-2.905.074H66.782a39.424,39.424,0,0,1-25.664-10.876L87.6,102.172ZM27.746,152.232c-.968-7.971-.67-32.368,35.907-44.474L30.316,161.88a39.38,39.38,0,0,1-2.57-9.647Zm29.016,36.13H34.488l5.811-9.386A42.332,42.332,0,0,0,56.762,188.363Z" transform="translate(-12.81 0.001)" fill="none"/>
    </clipPath>
    <linearGradient id="linear-gradient" x1="0.001" y1="0.509" x2="0.854" y2="0.494" gradientUnits="objectBoundingBox">
      <stop offset="0.09" stop-color="#8e4a2a"/>
      <stop offset="0.29" stop-color="#b36e4d"/>
      <stop offset="0.39" stop-color="#c98463"/>
      <stop offset="0.64" stop-color="#b68872"/>
      <stop offset="0.9" stop-color="#975e4d"/>
    </linearGradient>
    <linearGradient id="linear-gradient-2" x1="-0.245" y1="0.504" x2="6.419" y2="0.465" xlink:href="#linear-gradient"/>
    <linearGradient id="linear-gradient-3" x1="-1.454" y1="0.511" x2="5.575" y2="0.472" xlink:href="#linear-gradient"/>
    <linearGradient id="linear-gradient-4" x1="-3.033" y1="0.524" x2="2.69" y2="0.485" xlink:href="#linear-gradient"/>
    <linearGradient id="linear-gradient-5" x1="-13.548" y1="0.53" x2="5.091" y2="0.491" xlink:href="#linear-gradient"/>
    <linearGradient id="linear-gradient-6" x1="-2.438" y1="0.516" x2="4.104" y2="0.477" xlink:href="#linear-gradient"/>
    <linearGradient id="linear-gradient-7" x1="-4.809" y1="0.535" x2="1.191" y2="0.495" xlink:href="#linear-gradient"/>
    <linearGradient id="linear-gradient-8" x1="-0.714" y1="0.511" x2="17.639" y2="0.361" xlink:href="#linear-gradient"/>
    <linearGradient id="linear-gradient-9" x1="-2.825" y1="0.522" x2="16.836" y2="0.377" xlink:href="#linear-gradient"/>
    <linearGradient id="linear-gradient-10" x1="-6.778" y1="0.537" x2="20.716" y2="0.392" xlink:href="#linear-gradient"/>
    <linearGradient id="linear-gradient-11" x1="-7.901" y1="0.552" x2="15.861" y2="0.402" xlink:href="#linear-gradient"/>
    <linearGradient id="linear-gradient-12" x1="-20.22" y1="0.565" x2="27.627" y2="0.416" xlink:href="#linear-gradient"/>
    <linearGradient id="linear-gradient-13" x1="-11.427" y1="0.576" x2="11.799" y2="0.427" xlink:href="#linear-gradient"/>
    <linearGradient id="linear-gradient-14" x1="-11.045" y1="0.593" x2="7.992" y2="0.444" xlink:href="#linear-gradient"/>
    <linearGradient id="linear-gradient-15" x1="-17.882" y1="0.602" x2="8.504" y2="0.453" xlink:href="#linear-gradient"/>
    <linearGradient id="linear-gradient-16" x1="-36.467" y1="0.614" x2="11.38" y2="0.465" xlink:href="#linear-gradient"/>
    <linearGradient id="linear-gradient-17" x1="-19.311" y1="0.628" x2="3.916" y2="0.478" xlink:href="#linear-gradient"/>
    <linearGradient id="linear-gradient-18" x1="-19.233" y1="0.64" x2="1.691" y2="0.491" xlink:href="#linear-gradient"/>
  </defs>
  <g id="Layer_1" data-name="Layer 1" transform="translate(0 0.001)">
    <g id="Group_863" data-name="Group 863" transform="translate(0 -0.001)">
      <g id="Group_860" data-name="Group 860" transform="translate(47.714)" clip-path="url(#clip-path)">
        <rect id="Rectangle_15" data-name="Rectangle 15" width="179.161" height="201.807" transform="translate(-14.08 -3.76)" fill="url(#linear-gradient)"/>
      </g>
      <g id="Group_861" data-name="Group 861" transform="translate(0 220.024)">
        <path id="Path_2378" data-name="Path 2378" d="M39.3,93.581l-5.55,1.266s4.991,3.464,1.266,10.429c-1.564,2.943-4.619,4.954-8.865,5.326H6.779L38.588,59.09H14.6a15.8,15.8,0,0,0-9.684,3.39c-7.636,5.773-4.1,14.191-4.1,14.191L6.369,75.4S1.378,71.94,5.1,64.975c1.676-3.129,4.991-5.177,9.647-5.364H31.809L0,111.125H26.185a15.953,15.953,0,0,0,9.014-3.352C42.835,102,39.3,93.581,39.3,93.581Z" transform="translate(0 -59.015)" fill="url(#linear-gradient-2)"/>
        <path id="Path_2379" data-name="Path 2379" d="M50.24,100.154v10.988H12.21v-.559c2.458,0,4.358-2.086,4.358-7.04V66.631c0-4.917-1.937-7.077-4.358-7.077V59.07H49.793V70.058h-.521c0-5.773-5.177-10.5-11.584-10.5H26.625c-2.384,0-4.283,2.16-4.283,7.077V86.372c.931-1.974,3.241-4.209,8.12-4.209h1.862c5.438,0,7.226-3.315,7.226-5.55h.521V88.16H39.55c0-2.16-1.788-5.475-7.226-5.475H30.461c-7.487,0-8.12,5.177-8.12,5.773v15.085c0,4.917,1.937,7.04,4.283,7.04H38.134c6.369,0,11.51-4.693,11.51-10.467h.6Z" transform="translate(33.269 -59.07)" fill="url(#linear-gradient-3)"/>
        <path id="Path_2380" data-name="Path 2380" d="M39.758,86.9V66.641c0-4.917-1.937-7.077-4.358-7.077V59.08H49.815v.484c-2.384,0-4.283,2.16-4.283,7.077V91.3c1.527-4.507,7.859-10.392,26.52-10.578V66.641c0-4.917-1.974-7.077-4.358-7.077V59.08H82.108v.484c-2.384,0-4.358,2.16-4.358,7.077v36.912c0,4.917,1.974,7.04,4.358,7.04v.559H67.694v-.559c2.384,0,4.358-2.086,4.358-7.04V81.168c-24.881.3-26.52,10.876-26.52,12.329v10.057c0,4.917,1.937,7.04,4.283,7.04v.559H35.4v-.559c2.458,0,4.358-2.086,4.358-7.04V86.9" transform="translate(96.456 -59.043)" fill="url(#linear-gradient-4)"/>
        <path id="Path_2381" data-name="Path 2381" d="M63.87,59.554c-2.384,0-4.283,2.16-4.283,7.077v36.912c0,4.917,1.937,7.04,4.283,7.04v.559H49.53v-.559c2.384,0,4.283-2.086,4.283-7.04V66.631c0-4.917-1.937-7.077-4.283-7.077V59.07H63.87Z" transform="translate(134.957 -59.07)" fill="url(#linear-gradient-5)"/>
        <path id="Path_2382" data-name="Path 2382" d="M49.438,59.107c10.467,0,15.532,6.63,15.532,13.633,0,8.6-6.891,14.9-21.455,14.9a65.43,65.43,0,0,1-9.275-.708v16.65c0,4.917,1.937,7.04,4.283,7.04v.559H24.11v-.559c2.458,0,4.358-2.086,4.358-7.04V66.668c0-4.917-1.937-7.04-4.358-7.04V59.07H38.525v.559c-2.384,0-4.283,2.086-4.283,7.04v5.364c1.266-4.768,4.954-12.925,15.011-12.925H49.4Zm-15.16,27.3a49.1,49.1,0,0,0,7.077.559c12.7,0,17.879-6.332,17.879-14.191s-4.954-12.552-11.77-12.552c-8.939,0-12.888,10.206-13.148,14.6V86.447Z" transform="translate(65.694 -59.07)" fill="url(#linear-gradient-6)"/>
        <path id="Path_2383" data-name="Path 2383" d="M99.438,110.621v.559H84.614v-.559c1.192,0,2.123-1.08,2.123-2.719a6.816,6.816,0,0,0-1.266-3.725L75.078,87.639h-.931a64.045,64.045,0,0,1-9.2-.708v16.65c0,4.917,1.937,7.04,4.358,7.04v.559H54.89v-.559c2.384,0,4.283-2.086,4.283-7.04V66.668c0-4.917-1.937-7.04-4.283-7.04V59.07H69.3v.559c-2.458,0-4.358,2.086-4.358,7.04v5.364c1.266-4.768,5.028-12.925,15.011-12.925h.149c10.5,0,15.532,6.63,15.532,13.633,0,8.343-6.481,14.6-20.3,14.9a18.864,18.864,0,0,0,5.885,1.192,6.409,6.409,0,0,0,1.192-.074l10.318,16.352a23.193,23.193,0,0,0,3.241,3.8,5.876,5.876,0,0,0,3.427,1.676ZM64.984,86.41a49.1,49.1,0,0,0,7.077.559c12.7,0,17.916-6.332,17.916-14.191s-5.028-12.552-11.77-12.552c-8.939,0-12.962,10.206-13.223,14.6V86.447Z" transform="translate(149.562 -59.07)" fill="url(#linear-gradient-7)"/>
      </g>
      <g id="Group_862" data-name="Group 862" transform="translate(0.894 279.396)">
        <path id="Path_2384" data-name="Path 2384" d="M.24,88.777v-.6H2.065V75.666H.24v-.6H5.827v.6H4v5.7h7v-5.7H9.179v-.6h5.587v.6H12.979V88.181h1.453c.261.037.372.223.372.559H9.217v-.6h1.825V82h-7v6.146H5.492c.261.037.372.223.372.559H.24Z" transform="translate(-0.24 -74.847)" fill="url(#linear-gradient-8)"/>
        <path id="Path_2385" data-name="Path 2385" d="M18.711,76.324A7.506,7.506,0,0,1,19.2,87.312a6.5,6.5,0,0,1-4.656,1.825,6.669,6.669,0,0,1-4.246-1.453,6.892,6.892,0,0,1-2.533-5.7,6.641,6.641,0,0,1,2.16-5.177,6.713,6.713,0,0,1,4.693-1.788,6.522,6.522,0,0,1,4.1,1.341ZM16.29,88.168c1.825-.819,2.756-2.868,2.756-6.183,0-4.209-1.527-6.332-4.544-6.369a4.628,4.628,0,0,0-1.229.149c-2.2.6-3.278,2.682-3.278,6.295a11.531,11.531,0,0,0,.335,2.905c.633,2.347,2.049,3.539,4.246,3.539a4.21,4.21,0,0,0,1.676-.335Z" transform="translate(20.25 -74.983)" fill="url(#linear-gradient-9)"/>
        <path id="Path_2386" data-name="Path 2386" d="M23.856,87.749a5.606,5.606,0,0,1-4.06,1.415,6.951,6.951,0,0,1-3.985-1.155,2.856,2.856,0,0,1-.037.67c-.074.223-.261.335-.633.335v-4.73h.67c.261,2.831,1.564,4.246,3.874,4.283a4.031,4.031,0,0,0,1.639-.335,2.389,2.389,0,0,0,1.564-2.309,2.535,2.535,0,0,0-.3-1.155,5.758,5.758,0,0,0-2.607-1.862c-1.49-.633-2.347-1.043-2.607-1.155a3.641,3.641,0,0,1-2.16-3.129,3.04,3.04,0,0,1,.931-2.235,5.155,5.155,0,0,1,3.837-1.378,7.463,7.463,0,0,1,3.65.894,1.535,1.535,0,0,1,.037-.447c.075-.223.261-.335.633-.335v3.985h-.67A3.452,3.452,0,0,0,23,76.947a3.507,3.507,0,0,0-2.943-1.3,3.427,3.427,0,0,0-1.415.261,2.141,2.141,0,0,0-1.49,2.123,2.2,2.2,0,0,0,.261,1.08,5.376,5.376,0,0,0,2.57,1.788c1.49.67,2.384,1.043,2.682,1.229a3.693,3.693,0,0,1,2.2,3.278,3.351,3.351,0,0,1-.968,2.384Z" transform="translate(40.359 -75.01)" fill="url(#linear-gradient-10)"/>
        <path id="Path_2387" data-name="Path 2387" d="M21.31,88.777v-.6h1.825V75.666H21.31v-.6h6.779a5.618,5.618,0,0,1,2.5.521,3.234,3.234,0,0,1,1.974,3.166,3.477,3.477,0,0,1-.484,1.862c-.819,1.415-2.458,2.123-4.954,2.123H25.109v5.475h1.9c.261.037.372.223.372.559H21.31Zm3.8-13.111v6.407h2.645c1.751-.186,2.645-1.3,2.645-3.278a4.517,4.517,0,0,0-.186-1.266A2.5,2.5,0,0,0,27.568,75.7h-2.5Z" transform="translate(57.171 -74.847)" fill="url(#linear-gradient-11)"/>
        <path id="Path_2388" data-name="Path 2388" d="M27.78,88.777v-.6h1.825V75.666H27.78v-.6h5.587v.6H31.542V88.181h1.453c.261.037.372.223.372.559H27.78Z" transform="translate(74.8 -74.847)" fill="url(#linear-gradient-12)"/>
        <path id="Path_2389" data-name="Path 2389" d="M35.33,88.777v-.6h2.16V75.666H36.261c-1.155.074-2.011.894-2.5,2.384l-.372,1.527H32.76l.112-4.507H44.158l.112,4.507h-.633l-.372-1.527V77.9q-.615-2.235-2.458-2.235H39.465V88.181h1.788c.261.037.372.223.372.559H35.33Z" transform="translate(88.369 -74.847)" fill="url(#linear-gradient-13)"/>
        <path id="Path_2390" data-name="Path 2390" d="M48.141,88.8v-.6h1.49l-1.713-4.432H43.15l-1.713,4.432h1.341c.261.037.372.223.372.559H39.09v-.6h1.453l5.1-13.111H46.5l5.252,13.111H52.76c.261.037.372.223.372.559H48.178ZM45.5,77.593l-2.123,5.55h4.283Z" transform="translate(105.617 -74.874)" fill="url(#linear-gradient-14)"/>
        <path id="Path_2391" data-name="Path 2391" d="M46.164,88.777v-.6H47.99V75.666H46.164v-.6h5.7v.6H49.926V88.181h3.129a3.538,3.538,0,0,0,.521-.037c.857-.186,1.453-1.006,1.825-2.384l.372-1.527h.447l-.112,4.581H46.09Z" transform="translate(124.69 -74.847)" fill="url(#linear-gradient-15)"/>
        <path id="Path_2392" data-name="Path 2392" d="M52.15,88.777v-.6h1.825V75.666H52.15v-.6h5.587v.6H55.912V88.181h1.453c.261.037.372.223.372.559H52.15Z" transform="translate(141.202 -74.847)" fill="url(#linear-gradient-16)"/>
        <path id="Path_2393" data-name="Path 2393" d="M59.69,88.777v-.6h2.16V75.666H60.621c-1.155.074-2.011.894-2.5,2.384l-.372,1.527H57.12l.112-4.507H68.518l.112,4.507H68l-.372-1.527V77.9q-.615-2.235-2.458-2.235H63.825V88.181h1.788c.261.037.372.223.372.559H59.69Z" transform="translate(154.744 -74.847)" fill="url(#linear-gradient-17)"/>
        <path id="Path_2394" data-name="Path 2394" d="M67.145,88.8v-.6H68.97V83.329l-4.283-7.673H63.42v-.6H68.6v.6H66.847l3.65,6.667,3.464-6.667H72.136v-.6H76.2v.223c-.037.261-.223.372-.559.372a1.553,1.553,0,0,0-1.229.633l-3.464,6.779v5.1H72.4c.261.037.372.223.372.559H67.182Z" transform="translate(171.91 -74.874)" fill="url(#linear-gradient-18)"/>
      </g>
    </g>
  </g>
</svg>
