<svg xmlns="http://www.w3.org/2000/svg" xmlns:xlink="http://www.w3.org/1999/xlink" width="195" height="229.889" viewBox="0 0 195 229.889">
  <defs>
    <clipPath id="clip-path">
      <path id="Path_2377" data-name="Path 2377" d="M71.441,80.072C98.394,74.588,118,63.3,126.514,48.423c3.384-5.1,6.972-13.972,6.447-28.47a21.908,21.908,0,0,0-8.2-16.831A14.005,14.005,0,0,0,103.09,8.548h0s14.672-5.571,24.765,7.5c3.413,4.4,3.85,11.7,2.217,19.34a64.346,64.346,0,0,1-2.8,8.488c-6.826,16.189-26.661,28.645-54.9,34.625l37.046-60H49.389v.058a39.628,39.628,0,0,0-24.24,8.4c-7.2,5.426-10.443,11.814-11.7,17.648-1.9,8.955,6.33,16.8,15.256,14.789h0S16.194,50.757,25.5,33.284C29.67,25.437,37.954,20.3,49.651,19.866H92.327L53.56,82.785c-17.852,5.8-32.787,17.589-30.453,36.579a31.911,31.911,0,0,0,2.479,8.78L12.81,148.855H78.325a39.876,39.876,0,0,0,22.577-8.4c7.2-5.426,10.443-11.814,11.7-17.648,1.9-8.955-6.33-16.8-15.256-14.789h0s12.514,8.634,3.209,26.107c-3.938,7.38-11.522,12.4-22.169,13.3a21.881,21.881,0,0,1-2.275.058H55.077a30.875,30.875,0,0,1-20.1-8.518l36.4-58.952ZM24.507,119.218c-.758-6.242-.525-25.349,28.12-34.829L26.52,126.773a30.839,30.839,0,0,1-2.013-7.555ZM47.23,147.513H29.787l4.55-7.351A33.151,33.151,0,0,0,47.23,147.513Z" transform="translate(-12.81 0.001)" fill="none"/>
    </clipPath>
    <linearGradient id="linear-gradient" x1="0.001" y1="0.509" x2="0.854" y2="0.494" gradientUnits="objectBoundingBox">
      <stop offset="0.09" stop-color="#8e4a2a"/>
      <stop offset="0.29" stop-color="#b36e4d"/>
      <stop offset="0.39" stop-color="#c98463"/>
      <stop offset="0.64" stop-color="#b68872"/>
      <stop offset="0.9" stop-color="#975e4d"/>
    </linearGradient>
    <linearGradient id="linear-gradient-2" x1="-0.245" y1="0.504" x2="6.419" y2="0.465" xlink:href="#linear-gradient"/>
    <linearGradient id="linear-gradient-3" x1="-1.454" y1="0.511" x2="5.575" y2="0.472" xlink:href="#linear-gradient"/>
    <linearGradient id="linear-gradient-4" x1="-3.033" y1="0.524" x2="2.69" y2="0.485" xlink:href="#linear-gradient"/>
    <linearGradient id="linear-gradient-5" x1="-13.548" y1="0.53" x2="5.091" y2="0.491" xlink:href="#linear-gradient"/>
    <linearGradient id="linear-gradient-6" x1="-2.438" y1="0.516" x2="4.104" y2="0.477" xlink:href="#linear-gradient"/>
    <linearGradient id="linear-gradient-7" x1="-4.809" y1="0.535" x2="1.191" y2="0.495" xlink:href="#linear-gradient"/>
    <linearGradient id="linear-gradient-8" x1="-0.714" y1="0.511" x2="17.639" y2="0.361" xlink:href="#linear-gradient"/>
    <linearGradient id="linear-gradient-9" x1="-2.825" y1="0.522" x2="16.836" y2="0.377" xlink:href="#linear-gradient"/>
    <linearGradient id="linear-gradient-10" x1="-6.778" y1="0.537" x2="20.716" y2="0.392" xlink:href="#linear-gradient"/>
    <linearGradient id="linear-gradient-11" x1="-7.901" y1="0.552" x2="15.861" y2="0.402" xlink:href="#linear-gradient"/>
    <linearGradient id="linear-gradient-12" x1="-20.22" y1="0.565" x2="27.627" y2="0.416" xlink:href="#linear-gradient"/>
    <linearGradient id="linear-gradient-13" x1="-11.427" y1="0.576" x2="11.799" y2="0.427" xlink:href="#linear-gradient"/>
    <linearGradient id="linear-gradient-14" x1="-11.045" y1="0.593" x2="7.992" y2="0.444" xlink:href="#linear-gradient"/>
    <linearGradient id="linear-gradient-15" x1="-17.882" y1="0.602" x2="8.504" y2="0.453" xlink:href="#linear-gradient"/>
    <linearGradient id="linear-gradient-16" x1="-36.467" y1="0.614" x2="11.38" y2="0.465" xlink:href="#linear-gradient"/>
    <linearGradient id="linear-gradient-17" x1="-19.311" y1="0.628" x2="3.916" y2="0.478" xlink:href="#linear-gradient"/>
    <linearGradient id="linear-gradient-18" x1="-19.233" y1="0.64" x2="1.691" y2="0.491" xlink:href="#linear-gradient"/>
  </defs>
  <g id="Layer_1" data-name="Layer 1" transform="translate(0 0)">
    <g id="Group_863" data-name="Group 863" transform="translate(0 -0.001)">
      <g id="Group_860" data-name="Group 860" transform="translate(37.366)" clip-path="url(#clip-path)">
        <rect id="Rectangle_15" data-name="Rectangle 15" width="140.307" height="158.042" transform="translate(-11.026 -2.944)" fill="url(#linear-gradient)"/>
      </g>
      <g id="Group_861" data-name="Group 861" transform="translate(0 172.308)">
        <path id="Path_2378" data-name="Path 2378" d="M30.774,86.1l-4.346.992s3.909,2.713.992,8.168a8.282,8.282,0,0,1-6.942,4.171H5.309L30.22,59.09H11.435A12.376,12.376,0,0,0,3.85,61.744,9.539,9.539,0,0,0,.642,72.858l4.346-.992S1.079,69.154,4,63.7c1.313-2.45,3.909-4.055,7.555-4.2h13.36L0,99.84H20.506a12.493,12.493,0,0,0,7.059-2.625A9.539,9.539,0,0,0,30.774,86.1Z" transform="translate(0 -59.032)" fill="url(#linear-gradient-2)"/>
        <path id="Path_2379" data-name="Path 2379" d="M41.992,91.244v8.605H12.21v-.438c1.925,0,3.413-1.634,3.413-5.513V64.991c0-3.85-1.517-5.542-3.413-5.542V59.07H41.642v8.605h-.408c0-4.521-4.055-8.226-9.072-8.226H23.5c-1.867,0-3.355,1.692-3.355,5.542v15.46c.729-1.546,2.538-3.3,6.359-3.3h1.458c4.259,0,5.659-2.6,5.659-4.346h.408v9.043h-.408c0-1.692-1.4-4.288-5.659-4.288H26.5c-5.863,0-6.359,4.055-6.359,4.521V93.9c0,3.85,1.517,5.513,3.355,5.513h9.013c4.988,0,9.013-3.675,9.013-8.2h.467Z" transform="translate(23.406 -59.07)" fill="url(#linear-gradient-3)"/>
        <path id="Path_2380" data-name="Path 2380" d="M38.813,80.87V65c0-3.85-1.517-5.542-3.413-5.542V59.08H46.689v.379c-1.867,0-3.355,1.692-3.355,5.542v19.31c1.2-3.53,6.155-8.138,20.769-8.284V65c0-3.85-1.546-5.542-3.413-5.542V59.08H71.979v.379c-1.867,0-3.413,1.692-3.413,5.542V93.909c0,3.85,1.546,5.513,3.413,5.513v.438H60.69v-.438c1.867,0,3.413-1.634,3.413-5.513V76.378c-19.485.233-20.769,8.518-20.769,9.655v7.876c0,3.85,1.517,5.513,3.355,5.513v.438H35.4v-.438c1.925,0,3.413-1.633,3.413-5.513V80.87" transform="translate(67.861 -59.051)" fill="url(#linear-gradient-4)"/>
        <path id="Path_2381" data-name="Path 2381" d="M60.76,59.449c-1.867,0-3.355,1.692-3.355,5.542V93.9c0,3.85,1.517,5.513,3.355,5.513v.438H49.53v-.438c1.867,0,3.355-1.633,3.355-5.513V64.991c0-3.85-1.517-5.542-3.355-5.542V59.07H60.76Z" transform="translate(94.948 -59.07)" fill="url(#linear-gradient-5)"/>
        <path id="Path_2382" data-name="Path 2382" d="M43.945,59.1c8.2,0,12.164,5.192,12.164,10.676,0,6.738-5.4,11.668-16.8,11.668a51.241,51.241,0,0,1-7.263-.554V93.928c0,3.85,1.517,5.513,3.355,5.513v.438H24.11v-.438c1.925,0,3.413-1.634,3.413-5.513V65.021c0-3.85-1.517-5.513-3.413-5.513V59.07H35.4v.438c-1.867,0-3.355,1.634-3.355,5.513v4.2C33.036,65.487,35.924,59.1,43.8,59.1h.117ZM32.073,80.481a38.449,38.449,0,0,0,5.542.438c9.947,0,14-4.959,14-11.114s-3.88-9.83-9.218-9.83c-7,0-10.093,7.993-10.3,11.435v9.1Z" transform="translate(46.218 -59.07)" fill="url(#linear-gradient-6)"/>
        <path id="Path_2383" data-name="Path 2383" d="M89.777,99.441v.438H78.167v-.438c.933,0,1.663-.846,1.663-2.129a5.338,5.338,0,0,0-.992-2.917L70.7,81.443h-.729a50.156,50.156,0,0,1-7.2-.554V93.928c0,3.85,1.517,5.513,3.413,5.513v.438H54.89v-.438c1.867,0,3.355-1.633,3.355-5.513V65.021c0-3.85-1.517-5.513-3.355-5.513V59.07H66.179v.438c-1.925,0-3.413,1.634-3.413,5.513v4.2C63.758,65.487,66.7,59.1,74.521,59.1h.117c8.226,0,12.164,5.192,12.164,10.676,0,6.534-5.076,11.435-15.9,11.668a14.773,14.773,0,0,0,4.609.933,5.019,5.019,0,0,0,.933-.058l8.08,12.806A18.164,18.164,0,0,0,87.064,98.1a4.6,4.6,0,0,0,2.684,1.313ZM62.8,80.481a38.448,38.448,0,0,0,5.542.438c9.947,0,14.031-4.959,14.031-11.114s-3.938-9.83-9.218-9.83c-7,0-10.151,7.993-10.355,11.435v9.1Z" transform="translate(105.223 -59.07)" fill="url(#linear-gradient-7)"/>
      </g>
      <g id="Group_862" data-name="Group 862" transform="translate(0.7 218.804)">
        <path id="Path_2384" data-name="Path 2384" d="M.24,85.8v-.467H1.669v-9.8H.24V75.07H4.615v.467H3.186V80H8.67V75.537H7.241V75.07h4.375v.467h-1.4v9.8h1.138c.2.029.292.175.292.438H7.27v-.467H8.7V80.5H3.215v4.813H4.353c.2.029.292.175.292.438H.24Z" transform="translate(-0.24 -74.895)" fill="url(#linear-gradient-8)"/>
        <path id="Path_2385" data-name="Path 2385" d="M16.336,76.041a5.878,5.878,0,0,1,.379,8.605,5.087,5.087,0,0,1-3.646,1.429,5.223,5.223,0,0,1-3.325-1.138A5.4,5.4,0,0,1,7.76,80.475,5.2,5.2,0,0,1,9.452,76.42a5.257,5.257,0,0,1,3.675-1.4,5.107,5.107,0,0,1,3.209,1.05Zm-1.9,9.276c1.429-.642,2.159-2.246,2.159-4.842,0-3.3-1.2-4.959-3.559-4.988a3.624,3.624,0,0,0-.963.117c-1.721.467-2.567,2.1-2.567,4.93a9.03,9.03,0,0,0,.263,2.275A3.252,3.252,0,0,0,13.1,85.579a3.3,3.3,0,0,0,1.313-.263Z" transform="translate(14.176 -74.991)" fill="url(#linear-gradient-9)"/>
        <path id="Path_2386" data-name="Path 2386" d="M21.966,84.986a4.39,4.39,0,0,1-3.18,1.108,5.444,5.444,0,0,1-3.121-.9,2.237,2.237,0,0,1-.029.525c-.058.175-.2.263-.5.263v-3.7h.525c.2,2.217,1.225,3.325,3.034,3.355a3.157,3.157,0,0,0,1.283-.263,1.871,1.871,0,0,0,1.225-1.809,1.985,1.985,0,0,0-.233-.9,4.509,4.509,0,0,0-2.042-1.458c-1.167-.5-1.838-.817-2.042-.9a2.852,2.852,0,0,1-1.692-2.45,2.38,2.38,0,0,1,.729-1.75,4.037,4.037,0,0,1,3-1.079,5.844,5.844,0,0,1,2.859.7,1.2,1.2,0,0,1,.029-.35c.058-.175.2-.263.5-.263v3.121h-.525a2.7,2.7,0,0,0-.5-1.692,2.746,2.746,0,0,0-2.3-1.021,2.684,2.684,0,0,0-1.108.2,1.677,1.677,0,0,0-1.167,1.663,1.726,1.726,0,0,0,.2.846,4.21,4.21,0,0,0,2.013,1.4c1.167.525,1.867.817,2.1.963a2.892,2.892,0,0,1,1.721,2.567,2.624,2.624,0,0,1-.758,1.867Z" transform="translate(28.323 -75.01)" fill="url(#linear-gradient-10)"/>
        <path id="Path_2387" data-name="Path 2387" d="M21.31,85.8v-.467h1.429v-9.8H21.31V75.07h5.309a4.4,4.4,0,0,1,1.954.408,2.533,2.533,0,0,1,1.546,2.479,2.723,2.723,0,0,1-.379,1.458c-.642,1.108-1.925,1.663-3.88,1.663H24.285v4.288h1.488c.2.029.292.175.292.438H21.31Zm2.975-10.268v5.017h2.071c1.371-.146,2.071-1.021,2.071-2.567A3.537,3.537,0,0,0,28.282,77a1.954,1.954,0,0,0-2.071-1.429H24.256Z" transform="translate(40.151 -74.895)" fill="url(#linear-gradient-11)"/>
        <path id="Path_2388" data-name="Path 2388" d="M27.78,85.8v-.467h1.429v-9.8H27.78V75.07h4.375v.467H30.726v9.8h1.138c.2.029.292.175.292.438H27.78Z" transform="translate(52.554 -74.895)" fill="url(#linear-gradient-12)"/>
        <path id="Path_2389" data-name="Path 2389" d="M34.773,85.8v-.467h1.692v-9.8H35.5c-.9.058-1.575.7-1.954,1.867l-.292,1.2h-.5l.088-3.53h8.838l.088,3.53h-.5l-.292-1.2v-.117q-.481-1.75-1.925-1.75h-1.05v9.8h1.4c.2.029.292.175.292.438h-4.93Z" transform="translate(62.1 -74.895)" fill="url(#linear-gradient-13)"/>
        <path id="Path_2390" data-name="Path 2390" d="M46.178,85.824v-.467h1.167L46,81.886H42.27l-1.342,3.471h1.05c.2.029.292.175.292.438H39.09v-.467h1.138l4-10.268h.671l4.113,10.268H49.8c.2.029.292.175.292.438h-3.88Zm-2.071-8.78L42.445,81.39H45.8Z" transform="translate(74.235 -74.914)" fill="url(#linear-gradient-14)"/>
        <path id="Path_2391" data-name="Path 2391" d="M46.148,85.8v-.467h1.429v-9.8H46.148V75.07h4.463v.467H49.094v9.8h2.45a2.771,2.771,0,0,0,.408-.029c.671-.146,1.138-.788,1.429-1.867l.292-1.2h.35l-.088,3.588H46.09Z" transform="translate(87.653 -74.895)" fill="url(#linear-gradient-15)"/>
        <path id="Path_2392" data-name="Path 2392" d="M52.15,85.8v-.467h1.429v-9.8H52.15V75.07h4.375v.467H55.1v9.8h1.138c.2.029.292.175.292.438H52.15Z" transform="translate(99.27 -74.895)" fill="url(#linear-gradient-16)"/>
        <path id="Path_2393" data-name="Path 2393" d="M59.133,85.8v-.467h1.692v-9.8h-.963c-.9.058-1.575.7-1.954,1.867l-.292,1.2h-.5l.088-3.53h8.838l.088,3.53h-.5l-.292-1.2v-.117q-.481-1.75-1.925-1.75h-1.05v9.8h1.4c.2.029.292.175.292.438h-4.93Z" transform="translate(108.798 -74.895)" fill="url(#linear-gradient-17)"/>
        <path id="Path_2394" data-name="Path 2394" d="M66.337,85.824v-.467h1.429V81.536l-3.355-6.009H63.42V75.06h4.055v.467H66.1l2.859,5.221,2.713-5.221H70.246V75.06h3.179v.175c-.029.2-.175.292-.438.292a1.217,1.217,0,0,0-.963.5l-2.713,5.309v4H70.45c.2.029.292.175.292.438H66.366Z" transform="translate(120.875 -74.914)" fill="url(#linear-gradient-18)"/>
      </g>
    </g>
  </g>
</svg>
